<?xml version="1.0" encoding="utf-8"?>
<!-- Generator: Adobe Illustrator 23.0.5, SVG Export Plug-In . SVG Version: 6.00 Build 0)  -->
<svg version="1.1" xmlns="http://www.w3.org/2000/svg" xmlns:xlink="http://www.w3.org/1999/xlink" x="0px" y="0px"
	 viewBox="0 0 638.6 401.3" style="enable-background:new 0 0 638.6 401.3;" xml:space="preserve">
<style type="text/css">
	.st0{fill:#F2F5FA;}
	.st1{fill:#668FFF;}
	.st2{fill:#4A3DFF;}
	.st3{fill:#FFFFFF;}
	.st4{font-family:'Montserrat-Regular';}
	.st5{font-size:10.1341px;}
	.st6{fill:#B1ADDE;}
	.st7{fill:#FDFEFF;}
	.st8{fill:#E7E6E8;}
	.st9{fill:#0C0C4F;}
	.st10{font-size:15.1325px;}
	.st11{fill:#848484;}
	.st12{font-family:'SFUIDisplay-Semibold';}
	.st13{font-size:7.3462px;}
	.st14{font-family:'Montserrat-Light';}
	.st15{font-size:10px;}
	.st16{font-size:8.827px;}
	.st17{fill:#EF4635;}
	.st18{fill:#1DDBA9;}
	.st19{font-size:9.2503px;}
	.st20{fill:#617087;}
	.st21{font-size:3.5396px;}
	.st22{font-size:5.396px;}
	.st23{font-size:7px;}
	.st24{font-size:3.6687px;}
	.st25{fill:none;stroke:#545F75;stroke-width:0.5;stroke-miterlimit:10;}
	.st26{fill:none;stroke:#C6C9CC;stroke-width:0.5;stroke-miterlimit:10;}
	.st27{fill:#EDEDED;}
	.st28{font-size:5.7261px;}
	.st29{font-size:6.8182px;}
	.st30{font-size:4.5454px;}
	.st31{font-family:'Montserrat-SemiBold';}
	.st32{font-size:5.3236px;}
	.st33{fill:#F2F2F2;}
	.st34{font-size:1.4266px;}
	.st35{font-size:4.4875px;}
	.st36{fill:none;}
	.st37{fill:#2C2E36;}
	.st38{font-family:'Montserrat-ExtraLight';}
	.st39{font-size:3.9299px;}
	.st40{font-size:5.2489px;}
</style>
<g id="BACKGROUND">
</g>
<g id="OBJECTS">
	<g>
		<g>
			<path class="st0" d="M621.4,401.3H17.2c-9.5,0-17.2-7.7-17.2-17.2v-367C0,7.7,7.7,0,17.2,0h604.2c9.5,0,17.2,7.7,17.2,17.2v367
				C638.6,393.6,630.9,401.3,621.4,401.3z"/>
			<path class="st1" d="M638.6,36.4H0V17.2C0,7.7,7.7,0,17.2,0h604.2c9.5,0,17.2,7.7,17.2,17.2V36.4z"/>
			<path class="st2" d="M133.9,401.3H17.2c-9.5,0-17.2-7.7-17.2-17.2v-367C0,7.7,7.7,0,17.2,0h116.7V401.3z"/>
		</g>
		<text transform="matrix(1 0 0 1 45.1356 21.5761)" class="st3 st4 st5">YOUR LOGO</text>
		<g>
			<g>
				<path class="st6" d="M27.6,127.9l-1.3-1.1l-3.7,3.2c0.1,0.1,0.3,0.2,0.5,0.2h9.1c0.2,0,0.4-0.1,0.5-0.2l-3.7-3.2L27.6,127.9z"/>
				<path class="st6" d="M32.7,122.8c-0.1-0.1-0.3-0.2-0.5-0.2h-9.1c-0.2,0-0.4,0.1-0.5,0.2l5,4.3L32.7,122.8z"/>
				<polygon class="st6" points="22.4,123.2 22.4,129.5 26,126.4 				"/>
				<polygon class="st6" points="29.3,126.4 32.9,129.5 32.9,123.2 				"/>
			</g>
			<path class="st6" d="M28.8,160c0.6-0.4,1-1,1-1.8c0-1.2-1-2.1-2.1-2.1c-1.2,0-2.1,1-2.1,2.1c0,0.8,0.4,1.4,1,1.8
				c-1.4,0.1-2.5,1.3-2.5,2.7v2.2l0,0l0.2,0c1.4,0.5,2.7,0.6,3.7,0.6c2,0,3.2-0.6,3.3-0.6l0.1-0.1h0v-2.2
				C31.3,161.3,30.2,160.1,28.8,160z"/>
			<path class="st6" d="M32.7,231.5l-3.2-6.2c-0.8-1.5-3-1.5-3.8,0l-3.2,6.2c-0.7,1.4,0.3,3.1,1.9,3.1h6.4
				C32.4,234.6,33.4,232.9,32.7,231.5z M27.1,226.9h1.1v1.6c0,0.5,0,0.9-0.1,1.3c0,0.4-0.1,0.8-0.1,1.2h-0.7
				c-0.1-0.4-0.1-0.8-0.1-1.2c0-0.4-0.1-0.8-0.1-1.3V226.9z M28.1,232.8c-0.1,0.1-0.3,0.2-0.5,0.2c-0.2,0-0.4-0.1-0.5-0.2
				c-0.1-0.1-0.2-0.3-0.2-0.5c0-0.2,0.1-0.4,0.2-0.5c0.1-0.1,0.3-0.2,0.5-0.2c0.2,0,0.4,0.1,0.5,0.2c0.1,0.1,0.2,0.3,0.2,0.5
				C28.3,232.5,28.3,232.7,28.1,232.8z"/>
			<g>
				<path class="st6" d="M27.2,195.7h5.1c0,2.8-2.3,5.1-5.1,5.1c-2.8,0-5.1-2.3-5.1-5.1s2.3-5.1,5.1-5.1V195.7z"/>
				<path class="st6" d="M28.3,194.8h5.1c0-2.8-2.3-5.1-5.1-5.1V194.8z"/>
			</g>
			<path class="st1" d="M28.2,85.7c-0.3-0.4-0.9-0.4-1.2,0l-5.7,6.5h2.4V97c0,0.4,0.3,0.8,0.8,0.8h6.3c0.4,0,0.8-0.3,0.8-0.8v-4.7
				h2.4L28.2,85.7z M28.7,97.3h-2.2v-2.4c0-0.6,0.5-1.1,1.1-1.1c0.6,0,1.1,0.5,1.1,1.1V97.3z"/>
		</g>
		<g>
			<path class="st7" d="M609.6,17.2c0,6.4-5.1,11.5-11.5,11.5c-6.4,0-11.5-5.1-11.5-11.5c0-6.4,5.1-11.5,11.5-11.5
				C604.5,5.7,609.6,10.9,609.6,17.2z"/>
			<path class="st8" d="M600.3,19.8c1.1-0.7,1.9-2,1.9-3.4c0-2.3-1.8-4.1-4.1-4.1c-2.3,0-4.1,1.8-4.1,4.1c0,1.4,0.8,2.7,1.9,3.4
				c-2.7,0.2-4.8,2.5-4.8,5.2v1.4c1.9,1.5,4.3,2.4,7,2.4c2.6,0,5-0.9,7-2.4V25C605.1,22.3,603,20,600.3,19.8z"/>
		</g>
		<text transform="matrix(1 0 0 1 153.0497 72.6887)" class="st9 st4 st10">Overview</text>
		<g>
			<path class="st7" d="M270.2,26.9H156.9c-4.2,0-7.6-3.4-7.6-7.6v-2.6c0-4.2,3.4-7.6,7.6-7.6h113.3c4.2,0,7.6,3.4,7.6,7.6v2.6
				C277.8,23.5,274.4,26.9,270.2,26.9z"/>
			<text transform="matrix(1 0 0 1 160.1854 20.2216)" class="st11 st12 st13">Search</text>
			<g>
				<g>
					<g>
						<path class="st11" d="M267.6,20.7l-1.8-1.8c-0.3,0.4-0.6,0.8-1,1l1.8,1.8c0.3,0.3,0.8,0.3,1,0C267.9,21.5,267.9,21,267.6,20.7
							z"/>
						<path class="st11" d="M265.9,17.1c0-1.6-1.3-2.9-2.9-2.9c-1.6,0-2.9,1.3-2.9,2.9c0,1.6,1.3,2.9,2.9,2.9
							C264.6,20,265.9,18.7,265.9,17.1z M262.9,19.3c-1.2,0-2.2-1-2.2-2.2c0-1.2,1-2.2,2.2-2.2c1.2,0,2.2,1,2.2,2.2
							C265.1,18.3,264.2,19.3,262.9,19.3z"/>
					</g>
				</g>
			</g>
		</g>
		<g>
			<rect x="15.3" y="13.1" class="st6" width="17.2" height="1.2"/>
			<rect x="15.3" y="17" class="st6" width="17.2" height="1.2"/>
			<rect x="15.3" y="21" class="st6" width="17.2" height="1.2"/>
		</g>
		<g>
			<text transform="matrix(1 0 0 1 510.3978 22.3544)" class="st3 st14 st15">Hi, Laura Jane</text>
		</g>
		<text transform="matrix(1 0 0 1 41.9457 129.0184)" class="st3 st12 st16">Messages</text>
		<text transform="matrix(1 0 0 1 41.9457 96.4867)" class="st1 st12 st16">Dashboard</text>
		<text transform="matrix(1 0 0 1 41.9457 155.7313)" class="st3 st12 st16">Account</text>
		<text transform="matrix(1 0 0 1 41.9457 182.4433)" class="st3 st12 st16">Chart</text>
		<text transform="matrix(1 0 0 1 41.9457 209.1552)" class="st3 st12 st16">Calendar</text>
		<text transform="matrix(1 0 0 1 41.9457 235.8671)" class="st3 st12 st16">Reports</text>
		<path class="st17" d="M104.1,132.3h-9.9c-0.7,0-1.3-0.6-1.3-1.3v-9.1c0-0.7,0.6-1.3,1.3-1.3h9.9c0.7,0,1.3,0.6,1.3,1.3v9.1
			C105.3,131.7,104.8,132.3,104.1,132.3z"/>
		<g>
			<text transform="matrix(1 0 0 1 97.0399 129.2377)" class="st3 st14 st16">3</text>
		</g>
		<g>
			<path class="st3" d="M611.1,177.5H427c-4.2,0-7.5-3.4-7.5-7.5V98.1c0-4.2,3.4-7.5,7.5-7.5h184.1c4.2,0,7.5,3.4,7.5,7.5v71.8
				C618.6,174.1,615.2,177.5,611.1,177.5z"/>
			<g>
				<text transform="matrix(1 0 0 1 443.5939 157.5293)" class="st18 st12 st19">$ 3,124</text>
				<g>
					<text transform="matrix(1 0 0 1 442.4426 166.0451)" class="st20 st14 st21">*lorem ipsum dolor</text>
				</g>
				<g>
					<text transform="matrix(1 0 0 1 501.4029 166.0451)" class="st20 st14 st21">*lorem ipsum dolor</text>
				</g>
				<text transform="matrix(1 0 0 1 496.3844 156.5569)" class="st18 st12 st19">1,340,230</text>
				<g>
					<text transform="matrix(1 0 0 1 562.475 163.7117)" class="st20 st14 st21">*lorem ipsum dolor</text>
				</g>
				<text transform="matrix(1 0 0 1 561.2211 156.5574)" class="st18 st12 st19">135,020</text>
				<g>
					<text transform="matrix(1 0 0 1 503.2813 121.6465)" class="st20 st14 st22">Downloads</text>
				</g>
				<g>
					<g>
						<text transform="matrix(1 0 0 1 447.7071 121.6462)" class="st20 st14 st22">Earnings</text>
					</g>
				</g>
				<g>
					<g>
						<text transform="matrix(1 0 0 1 567.7071 121.6462)" class="st20 st14 st22">Favorites</text>
					</g>
				</g>
				<g>
					<path class="st2" d="M465.7,137.1c0,2.2-1.7,3.5-4,3.8v2.8h-2.1v-2.8c-1.8-0.2-3.4-0.9-4.7-2l1.2-2.4c1.3,1.2,3.2,2,4.6,2
						c1.2,0,1.9-0.4,1.9-1.2c0-2.5-6.9-1-6.9-5.6c0-2,1.5-3.4,3.9-3.8v-2.6h2.1v2.6c1.5,0.1,2.9,0.7,4,1.4l-1.1,2.4
						c-1.4-0.8-3-1.3-4.1-1.3c-1,0-1.7,0.4-1.7,1.1C458.8,133.7,465.7,132.4,465.7,137.1z"/>
				</g>
				<polygon class="st2" points="523.2,135.4 523.2,127.6 517.2,127.6 517.2,135.4 514.6,135.4 520.2,142.1 525.8,135.4 				"/>
				<polygon class="st2" points="579.4,126.2 581.6,131.4 587.2,131.9 582.9,135.5 584.2,141 579.4,138.1 574.6,141 575.9,135.5 
					571.6,131.9 577.3,131.4 				"/>
			</g>
			<g>
				<text transform="matrix(1 0 0 1 433.4273 104.1695)" class="st20 st14 st23">Calculation</text>
			</g>
		</g>
		<g>
			<path class="st3" d="M406.6,221.8H158.8c-4.2,0-7.5-3.4-7.5-7.5V98.1c0-4.2,3.4-7.5,7.5-7.5h247.8c4.2,0,7.5,3.4,7.5,7.5v116.2
				C414.2,218.5,410.8,221.8,406.6,221.8z"/>
			<g>
				<text transform="matrix(1 0 0 1 167.9967 188.912)" class="st20 st14 st24">1000</text>
				<text transform="matrix(1 0 0 1 167.9967 174.1605)" class="st20 st14 st24">1500</text>
				<text transform="matrix(1 0 0 1 167.9967 159.4095)" class="st20 st14 st24">2000</text>
				<text transform="matrix(1 0 0 1 167.9967 144.6576)" class="st20 st14 st24">2500</text>
				<text transform="matrix(1 0 0 1 167.9967 129.7962)" class="st20 st14 st24">3000</text>
				<text transform="matrix(1 0 0 1 187.8097 202.6429)" class="st20 st14 st24">01</text>
				<text transform="matrix(1 0 0 1 216.2276 202.6429)" class="st20 st14 st24">02</text>
				<text transform="matrix(1 0 0 1 244.6436 202.6429)" class="st20 st14 st24">03</text>
				<text transform="matrix(1 0 0 1 273.1471 202.6429)" class="st20 st14 st24">04 </text>
				<text transform="matrix(1 0 0 1 301.4796 202.6429)" class="st20 st14 st24">05</text>
				<text transform="matrix(1 0 0 1 327.6344 202.6429)" class="st20 st14 st24">06</text>
				<text transform="matrix(1 0 0 1 358.3141 202.6429)" class="st20 st14 st24">07</text>
				<text transform="matrix(1 0 0 1 386.7315 202.6429)" class="st20 st14 st24">08</text>
				<line class="st25" x1="190.1" y1="199.2" x2="190.1" y2="197"/>
				<line class="st25" x1="218.5" y1="199.2" x2="218.5" y2="197"/>
				<line class="st25" x1="246.9" y1="199.2" x2="246.9" y2="197"/>
				<line class="st25" x1="275.3" y1="199.2" x2="275.3" y2="197"/>
				<line class="st25" x1="303.7" y1="199.2" x2="303.7" y2="197"/>
				<line class="st25" x1="329.9" y1="199.2" x2="329.9" y2="197"/>
				<line class="st25" x1="360.6" y1="199.2" x2="360.6" y2="197"/>
				<line class="st25" x1="389" y1="199.2" x2="389" y2="197"/>
				<line class="st26" x1="183.1" y1="143.6" x2="397.4" y2="143.6"/>
				<line class="st26" x1="183.1" y1="158.3" x2="397.4" y2="158.3"/>
				<line class="st26" x1="183.1" y1="128.7" x2="397.4" y2="128.7"/>
				<line class="st26" x1="183.1" y1="173.1" x2="397.4" y2="173.1"/>
				<line class="st26" x1="183.1" y1="187.8" x2="397.4" y2="187.8"/>
				<path class="st3" d="M273.5,153.5c-0.8,0-1.5-0.7-1.5-1.5c0-0.8,0.7-1.5,1.5-1.5c0.8,0,1.5,0.7,1.5,1.5
					C275,152.8,274.3,153.5,273.5,153.5z"/>
				<g>
					<polygon class="st18" points="188.8,188 182.1,188 182.5,165.1 189.2,165.1 					"/>
					<polygon class="st2" points="198,188 191.4,188 191.8,152.1 198.4,152.1 					"/>
				</g>
				<g>
					<rect x="210.6" y="163.7" class="st18" width="6.8" height="24.4"/>
					<rect x="220" y="153.3" class="st2" width="6.8" height="34.7"/>
				</g>
				<g>
					<rect x="239.2" y="148.3" class="st18" width="6.7" height="39.8"/>
					<rect x="248.4" y="140.1" class="st2" width="6.7" height="47.9"/>
				</g>
				<g>
					<rect x="267.6" y="135.2" class="st18" width="6.7" height="52.8"/>
					<rect x="276.8" y="129.7" class="st2" width="6.7" height="58.4"/>
				</g>
				<g>
					<rect x="296" y="160.6" class="st18" width="6.7" height="27.4"/>
					<rect x="305.2" y="154" class="st2" width="6.7" height="34"/>
				</g>
				<g>
					<rect x="322.2" y="137.9" class="st18" width="6.7" height="50.2"/>
					<rect x="331.4" y="153.3" class="st2" width="6.7" height="34.7"/>
				</g>
				<g>
					<rect x="352.8" y="129.2" class="st18" width="6.7" height="58.8"/>
					<rect x="362.1" y="135.7" class="st2" width="6.7" height="52.3"/>
				</g>
				<g>
					<rect x="381.3" y="151" class="st18" width="6.7" height="37"/>
					<rect x="390.5" y="130.6" class="st2" width="6.7" height="57.5"/>
				</g>
			</g>
			<g>
				<text transform="matrix(1 0 0 1 166.6372 104.1695)" class="st20 st14 st23">Average Charts</text>
			</g>
		</g>
		<g>
			<path class="st3" d="M406.6,379.7H158.8c-4.2,0-7.5-3.4-7.5-7.5V234.5c0-4.2,3.4-7.5,7.5-7.5h247.8c4.2,0,7.5,3.4,7.5,7.5v137.7
				C414.2,376.3,410.8,379.7,406.6,379.7z"/>
			<g>
				<g>
					<g>
						<path class="st27" d="M395.5,341.7c0.3,0,0.6-0.3,0.8,0c-0.2,0.4-0.4,0.7-0.8,0.9c-0.2,0.1-0.4,0.1-0.6,0.1
							c-0.4,0.1-0.5,0.5-0.9,0.8c-0.3,0.2-0.7,0.4-1,0.6c-0.3,0.2-0.7,0.6-1.1,0.3c0-0.5,0.6-0.5,0.7-0.9c0-0.3-0.3-0.3-0.3-0.6
							c0.6-0.5,1.5-0.9,1.7-2c0.1-0.5-0.3-1.5,0.3-1.6c0.7-0.1,0.3,0.7,0.3,1.1c0,0.2,0.2,0.3,0.3,0.5
							C395.1,341.3,395.1,341.6,395.5,341.7z"/>
						<path class="st27" d="M391.4,344.3c-0.2,0.7-1.3,1.1-2,1.6c-0.2,0.1-0.4,0.5-0.6,0.6c-0.3,0.1-0.7,0.1-1.1,0.3
							c-0.6,0.3-1,0.8-1.5,1.1c-0.5,0.3-1.2,0.8-1.8,0.8c-0.6,0-1.8-0.4-1-0.9c0.3-0.3,1.1-0.5,1.4-0.7c1.2-0.6,2.9-1,4-1.8
							c0.6-0.4,1.1-0.9,1.6-1.2C390.6,343.8,391.1,344.3,391.4,344.3z"/>
						<path class="st27" d="M383.9,315.5c0.1,0,0.1,0.1,0.2,0.1c-0.1,0.6-0.4,1-1.2,0.9c-0.4,0-1-0.3-1-0.5
							C381.8,315.4,383.5,315.8,383.9,315.5z"/>
						<path class="st27" d="M381.8,318.4c0.3,0.1,1.7,1.1,1.2,1.5c-0.2,0.2-0.6-0.1-0.9-0.2c-0.5-0.1-0.9,0-1.3-0.3
							c-0.4-0.3-0.5-1-0.9-1.4c-0.2-0.2-0.8-0.5-1.2-0.4c-0.7,0.1-0.7,0.9-1.3,1.2c-0.6-0.1-0.9,0.1-1.4,0c-0.5-0.2-0.7-0.8-1.1-0.8
							c-0.4-0.1-1.5,0.7-1.6,0c-0.1-0.5,0.7-0.7,0.8-1.1c0.1-0.4-0.3-1-0.5-1.1c-0.2-0.2-0.4-0.2-0.6-0.3c-0.2-0.1-0.4-0.4-0.6-0.5
							c-0.9-0.5-2.3-0.3-2.6-1c-0.1-0.1,0-0.3,0-0.5c-0.1-0.2-0.4-0.3-0.6-0.5c-0.3-0.5-0.1-1.3,0.4-1.4c0.5-0.1,1.4,0.5,1.5,0.9
							c0.1,0.2,0,0.4,0,0.6c0,0.3,0.4,0.9,0.8,0.9c0.4,0,0.7-0.7,1.1-0.9c0.3-0.2,0.7-0.4,1.1-0.3c0.4,0,0.6,0.3,1,0.5
							c0.3,0.1,0.7,0.2,1,0.3c0.3,0.1,0.6,0.3,0.9,0.4c1,0.4,2.2,0.6,2.8,1.2c0.2,0.2,0.1,0.4,0.3,0.6c0.2,0.2,1.2,0.4,1.2,0.8
							c0,0.3-0.4,0.3-0.4,0.6C380.8,317.8,381.6,317.7,381.8,318.4z"/>
						<path class="st27" d="M372.7,344.2c-0.1,0.5-0.5,1.1-1.1,1.5c-0.4,0.3-1.6,0.8-1.8,0c0-0.2,0.2-1.2,0.3-1.4
							c0.3-0.6,0.6-0.2,1.1-0.1C371.8,344.3,372.3,343.9,372.7,344.2z"/>
						<path class="st27" d="M369.3,281.6c0.2,0.5,0.3,1,0.4,1.5c-0.5,0.6-1.4,0.4-2.1,0.7c-0.3,0.1-0.4,0.7-0.7,0.8
							c-0.3,0.1-0.4-0.2-0.7-0.2c-0.6,0-0.9,1-1.7,0.8c-0.4,0.3,0,1.3-0.5,1.3c-0.4,0.1-0.6-0.4-0.8-0.7c-0.3-0.4-0.7-0.6-0.7-0.9
							c0-0.3,0.6-0.8,0.8-1c0.2-0.3,0.7-0.8,1-0.8c0.6-0.1,1.2,0.1,1.6-0.1c0.4-0.2,0.4-0.8,0.6-0.9c0.2-0.1,0.4-0.1,0.5-0.2
							c0.4-0.2,0.8-1,0.6-1.7c-0.1-0.5-0.9-1-0.4-1.6c0.8,0.1,1.8,0.8,1.9,1.6c0,0.3-0.1,0.6-0.1,0.9
							C369.1,281.2,369.3,281.4,369.3,281.6z"/>
						<path class="st27" d="M369.5,276.9c-0.1,0.2-0.3,0.2-0.5,0.3c-0.2,0.1-0.4,0.5-0.6,0.6c-0.3,0.1-0.7-0.3-1.1-0.3
							c-0.4,0.1-0.2,0.4-0.3,0.8c-0.4-0.1-0.9-0.5-0.9-0.9c0-0.2,0.3-0.4,0.4-0.7c0.1-0.5-0.2-0.7-0.4-1.2c0-0.1,0-0.1,0-0.1
							c0.4-0.1,1.2,0.7,2.2,0.9C369,276.4,369.5,276.3,369.5,276.9z"/>
						<path class="st27" d="M367.9,320.6c0,0.4-0.6,0.3-0.6,0.1C367.3,320.4,367.8,320.3,367.9,320.6z"/>
						<path class="st27" d="M364.9,273.3c0.4,0.2,1.5,0.7,0.7,1.2C365.2,274.3,364.7,273.8,364.9,273.3z"/>
						<path class="st27" d="M362.9,318.7c0.5-0.3,1-0.9,1.9-0.6c-0.2,0.5-0.8,0.5-1.2,0.8c-0.4,0.3-0.8,0.7-1.3,0.7
							c0-0.1-0.1-0.1-0.2-0.2C362.1,319,362.6,318.9,362.9,318.7z"/>
						<path class="st27" d="M361.8,310.6c0.5,0,1-0.2,1.3,0c-0.1,1.1-1.7,0.3-2.8,0.4c-0.2,0-0.3,0.2-0.6,0.1c0-0.4,0.4-0.7,0.8-0.8
							C360.8,310.4,361.3,310.6,361.8,310.6z"/>
						<path class="st27" d="M362.2,312c0,0.6-0.8,0.7-1,1.1c0.4,0.5,0.5,1.3,0.9,1.8c0,0.3,0.1,0.8-0.1,0.9
							c-0.9,0.2-1.3-1.4-1.7-1.9c-0.7,0.1-0.1,2.2-0.9,2c-0.4-0.1,0-0.7-0.1-1.2c-0.1-0.4-0.5-0.5-0.5-0.8c0-0.3,0.3-0.5,0.4-0.8
							c0.1-0.4,0-1.1,0.5-1.2c0.2,0,0.5,0.5,0.7,0.5C360.8,312.5,361.5,311.8,362.2,312z"/>
						<path class="st27" d="M360.6,318.4c-0.2,0.3-1,0.2-1.1-0.1C359.6,317.9,360.5,318,360.6,318.4z"/>
						<path class="st27" d="M359.8,319.4c-0.1,0.1-0.1,0.1-0.2,0.2c-0.3-0.1-0.7-0.2-0.8-0.5C359.1,318.7,359.8,319,359.8,319.4z"/>
						<path class="st27" d="M358.6,318.3c-0.2,0.3-1,0-1.2,0.3c-0.4,0-0.9,0-1-0.4c0.1-0.3,0.5-0.1,0.9-0.1
							C357.8,318.1,358.5,317.7,358.6,318.3z"/>
						<path class="st27" d="M352.5,334.8c0-0.4-0.2-0.7-0.3-1.1c0-0.1,0-0.3,0-0.5c0-0.3-0.2-0.5-0.1-0.6c0.1-0.3,0.4-0.3,0.5-0.6
							c0.1-0.4-0.2-0.5-0.2-0.9c0-0.3,0.3-0.5,0.4-0.9c0.1-0.2,0.1-0.6,0.2-0.7c0.1-0.2,0.6-0.3,0.8-0.4c0.7-0.3,1.2-0.9,1.9-1
							c0.2,0,0.4,0,0.5,0c0.4-0.1,0.9-0.4,1.4-0.5c0.5-0.1,1-0.1,1.4-0.3c0.4-0.2,1-0.9,1.2-1.3c0.2-0.5,0.1-0.9,0.5-1
							c0.2-0.1,0.4,0,0.6,0c0.2-0.1,0.6-0.3,0.8-0.4c0.3-0.3,0.3-0.7,0.7-1c0.2-0.2,0.7-0.5,1-0.6c0.2-0.1,0.5-0.2,0.7-0.2
							c0.6,0.1,0.9,0.9,1.6,0.7c0.2-0.1,0.5-0.6,0.7-0.9c0.3-0.4,0.5-1,1.1-1.2c0.4-0.1,0.9,0.2,1.2-0.2c0.1-0.3-0.2-0.4,0-0.6
							c0.5,0,1.4,0.7,2.1,0.7c0.4,0,1.2-0.4,1.3,0.2c0,0.3-0.3,0.5-0.4,0.8c-0.1,0.2,0.1,0.3,0,0.5c-0.4,0.1-0.7,0.2-0.7,0.6
							c0,0.5,0.7,0.7,1.1,1c0.3,0.2,0.5,0.5,0.7,0.6c0.1,0.1,0.3,0.1,0.4,0.2c0.3,0.2,0.5,0.6,0.9,0.6c0.4,0,0.9-0.5,1.1-1.1
							c0.3-0.6,0.3-1.4,0.4-2c0-0.2,0.2-0.4,0.3-0.6c0.2-0.6,0.4-1.4,0.9-1.6c0.5,0.5,0.7,1.6,0.6,2.5c0.3,0.3,0.9,0.2,1,0.8
							c0,0.2-0.1,0.5-0.1,0.7c0,0.4,0.3,0.7,0.3,1c0.1,0.6-0.1,1,0.2,1.5c0.3,0.5,1,0.5,1.4,1.1c0,0.4,0.1,0.5,0.2,0.8
							c0,0.1,0,0.3,0,0.4c0.1,0.3,0.5,0.3,0.6,0.6c0.1,0.1,0,0.3,0.1,0.6c0.1,0.3,0.4,0.6,0.6,0.9c0.2,0.3,0.5,0.6,0.6,0.9
							c0.1,0.4-0.2,0.7-0.3,1.1c-0.1,0.4,0,1-0.2,1.4c-0.2,0.5-0.7,1-1.1,1.7c-0.3,0.5-0.7,1.1-1.2,1.5c-0.3,0.2-0.6,0.3-0.9,0.6
							c-0.4,0.3-0.8,0.8-1.1,1.2c-0.4,0.4-0.9,0.7-1.2,1.1c-0.4,0.5-0.7,1.3-1.4,1.4c-0.4,0-0.8,0-1.2,0.2c-0.6,0.3-1.1,0.7-1.4,0.7
							c-0.3,0-0.6-0.4-0.9-0.4c-0.3,0-0.6,0.3-1.1,0.3c-0.2,0-0.3-0.1-0.6-0.2c-0.6-0.2-1.3-0.2-1.4-0.9c0-0.4,0.2-0.5,0.2-0.9
							c0-0.3-0.3-0.4-0.5-0.7c0.1-0.3,0.1-0.7-0.2-0.9c0-0.3,0.1-0.5,0.2-0.6c-0.3,0.1-0.6,0.2-0.9,0.3c-0.3,0.2-0.5,0.6-0.9,0.6
							c-0.3-0.1-0.1-0.5-0.1-0.7c0-0.2-0.5-1.1-0.7-1.2c-0.2-0.2-1.2-0.5-1.5-0.6c-1.3-0.2-2.2,0.5-3.2,0.6c-0.3,0-0.6,0-0.8,0
							c-0.9,0.2-1.8,0.8-2.4,1.3c-0.9,0.1-1.8-0.2-2.7,0.1c-0.9,0.3-1.4,1-2.8,0.8c-0.3-0.2-0.8-0.4-0.8-0.8c0-0.3,0.5-0.5,0.6-0.8
							c0.2-0.3,0.5-0.8,0.5-1.2c0-0.3-0.2-0.6-0.2-1C352.4,335.4,352.5,335.1,352.5,334.8z"/>
						<path class="st27" d="M351.8,316.9c0.2,0,0.4-0.2,0.6-0.2c0.5,0,1,0.4,1.6,0.3c0.1,0.1,0,0.3,0,0.5c0.5,0.3,1.3,0.2,1.6,0.7
							c-0.4,0.4-0.9,0.1-1.4,0c-0.4-0.1-0.9,0-1.4-0.1c-0.6-0.1-1.1-0.4-1.7-0.5c-0.3,0-0.7,0-1,0c-0.4-0.1-1.8-0.6-1.9-1
							c0-0.4,0.7-0.5,1.2-0.4C350.3,316.3,350.8,317,351.8,316.9z"/>
						<path class="st27" d="M353,313.9c-0.3-0.1-0.6,0-0.8-0.1c-0.3-0.2-0.3-0.7-0.3-1c-0.1-0.3-0.5-0.5-0.6-0.9
							c-0.3-0.6-0.4-1.9,0.3-2c0.3-0.1,0.6,0.2,0.8,0.1c0.4-0.1,0.3-0.6,0.7-0.9c0.2-0.1,0.5-0.1,0.8-0.2c0.3-0.1,0.5-0.4,0.7-0.6
							c0.2-0.2,0.3-0.6,0.6-0.7c0.3-0.2,0.5-0.2,0.7-0.3c0.6-0.4,0.6-1,1-1.6c0.4-0.4,1,0.4,1,0.8c0.2,0.3,0.6,0.3,0.8,0.6
							c-0.3,0.8-1,0.8-0.8,1.9c0,0.2,0.1,0.5,0.3,0.7c0.1,0.3,0.5,0.5,0.5,0.7c0,0.3-0.7,0.3-0.8,0.6c-0.1,0.3,0,0.3,0,0.8
							c-0.2,0.4-0.7,0.4-0.8,0.9c-0.2,0.5,0,1.2-0.4,1.6c-0.3,0-0.6,0.2-0.9,0.2c-0.4,0-0.7-0.6-1.3-0.6c-0.2,0-0.5,0.1-0.7,0.1
							C353.4,314.1,353.2,314,353,313.9z"/>
						<path class="st27" d="M350.2,312.9c1.1,0,1.1,1.7,0,1.7C349.1,314.6,349.1,312.9,350.2,312.9z"/>
						<path class="st27" d="M348.6,312.7c0.1,0,0.6,0.7,0.6,0.9c0,0.3-0.5,0.3-0.6,0.7c-0.2,0.6,0.1,1.3-0.3,1.6
							c-0.2,0.1-0.5,0.1-0.9,0.1c-0.8-0.5-1.4-1.2-2.1-1.9c-0.2-0.3-0.5-0.5-0.7-0.8c-0.2-0.4-0.3-0.9-0.6-1.2
							c-0.2-0.3-0.6-0.6-0.9-0.9c-0.2-0.3-0.2-0.7-0.4-1c-0.2-0.3-0.5-0.4-0.7-0.6c-0.1-0.1-0.2-0.4-0.3-0.5c-0.5-0.6-1.6-1-1.6-1.9
							c0.2-0.3,0.4,0.1,0.9,0.2c0.3,0.1,0.6,0,0.8,0c0.4,0.1,0.7,0.7,1.1,1.1c0.2,0.2,0.5,0.3,0.8,0.5c0.3,0.2,0.4,0.5,0.6,0.6
							c0.3,0.2,0.7,0.3,1,0.5c0.5,0.3,1.4,0.6,1.5,1.3c0,0.2-0.1,0.4,0,0.6c0.1,0.2,0.3,0.3,0.5,0.5c0.2,0.2,0.3,0.6,0.6,0.6
							C348.2,313.1,348.2,312.7,348.6,312.7z"/>
						<path class="st27" d="M328.2,303.7c0.4,0.1,1.6,1.6,1.2,2.5c-0.1,0.2-0.5,0.5-0.9,0.5c-0.9-0.1-0.7-2-0.4-2.8
							C328.1,303.8,328.2,303.7,328.2,303.7z"/>
						<path class="st27" d="M299.6,325.5c0-0.3,0.3-0.9,0.6-1.1c0.4-0.3,0.9-0.3,1.3-0.5c0.3-0.2,0.8-0.5,1-0.8
							c0.2-0.3,0.2-0.6,0.4-0.8c0.1-0.1,0.4-0.2,0.5-0.3c0.1-0.2,0.1-0.4,0.3-0.6c0.6-0.3,0.8,0.8,0.9,1.6c0,0.2,0.1,0.5,0.1,0.6
							c-0.1,0.3-0.4,0.4-0.6,0.6c0,0.9-0.4,1.8-0.7,2.5c-0.3,0.7-0.5,1.4-0.7,2c-0.1,0.2-0.3,0.4-0.3,0.6c-0.3,0.7-0.4,1.9-1,2.2
							c-0.2,0.1-1,0.3-1.2,0.3c-0.5,0-1-0.4-1.1-0.9c-0.1-0.2,0-0.5,0-0.8c-0.1-0.3-0.3-0.6-0.2-1c0.1-0.9,0.9-1.3,1-2
							C299.8,326.6,299.5,326,299.6,325.5z"/>
						<path class="st27" d="M278.8,264.2c0.1,0.7-1.1,0.6-1.2,1.3c-0.1,0.3,0.1,0.7,0.1,0.9c-0.1,0.5-0.5,0.3-1.1,0.6
							c-0.3,0.1-0.6,0.6-0.9,0.6c-0.3,0-0.5-0.2-0.6-0.1c-0.3,0.1-0.2,0.4-0.6,0.5c-0.3,0.1-0.9-0.3-0.9,0.1c0,0.3,0.5,0.4,0.9,0.4
							c0.3,0,0.5-0.2,0.7-0.2c0.5,0,0.8,0.4,1.2,0.4c0.7,0,1.5-0.7,2.2-0.6c0.4,0,0.6,0.3,0.8,0.3c0.4,0,0.8-0.5,1.1-0.7
							c-0.1-0.7,0-1.7,0.7-1.7c0.5,0,1.2,0.8,1.2,0c0-0.3-0.4-0.7-0.6-0.6c-0.2,0-0.6,0.5-0.8,0.1c0-0.4,0.4-0.3,0.7-0.4
							c0.2-0.1,0.3-0.3,0.5-0.3c1-0.4,2.4,0.4,2.8-0.5c-0.9-0.8-2.5,0.3-3.5,0.2c-0.4,0-1-0.4-1.2-0.8c0-0.1,0-0.3,0-0.6
							c0-0.3-0.2-0.6-0.2-0.7c0-0.8,2-0.9,2-1.9c-0.4-0.4-1.5-0.3-1.8,0.1c-0.1,0.1-0.1,0.4-0.3,0.7c-0.4,0.6-1.6,0.7-2,1.4
							c-0.1,0.2-0.2,0.6-0.2,0.9C277.9,263.6,278.8,263.8,278.8,264.2z M268.6,306.3c-1.2-0.2-2.5,0.3-3.4,0.7
							c-0.5,0.2-1,0.5-1.4,0.6c-0.4,0-0.8-0.2-1.2-0.3c-0.5-0.1-1.2,0-1.7,0.1c-0.5,0.1-0.9,0.4-1.4,0.5c-0.8,0.1-1.6-0.8-2.2-1.2
							c-0.3-0.3-0.6-0.5-0.9-0.7c-0.3-0.3-0.7-0.4-1-0.6c-0.3-0.3-0.3-0.9-0.5-1.3c-0.2-0.5-0.8-0.9-1.3-1.4
							c-0.4-0.4-1.2-0.9-1.3-1.4c0-0.2,0.1-0.5,0.1-0.8c0-0.4-0.3-0.6-0.3-0.9c0-0.4,0.5-0.7,0.6-1c0.1-0.2,0-0.4,0.1-0.6
							c0.1-0.4,0.4-0.7,0.3-1.3c0-0.3-0.2-0.5-0.3-0.8c0-0.2,0.1-0.4,0.1-0.6c0-0.4-0.5-0.4-0.6-0.9c0-0.4,0.4-0.8,0.7-1.3
							c0.1-0.2,0.2-0.6,0.3-0.7c0.2-0.4,0.6-0.5,0.8-0.9c0.1-0.3,0.2-0.7,0.3-0.9c0.2-0.3,0.5-0.4,0.8-0.7c0.2-0.3,0.3-0.6,0.5-0.7
							c0.2-0.2,0.5-0.2,0.8-0.3c0.8-0.4,1.4-0.8,1.8-1.6c-0.1-0.7,0.1-1,0.3-1.5c0.3-0.4,0.5-0.9,0.9-1.1c0.5-0.3,1-0.3,1.4-0.9
							c0.2-0.3,0.5-0.8,0.5-1.1c0-0.4-0.4-1-0.8-1c-0.4-0.1-1,0.3-1.2-0.1c-0.1-0.1,0-0.5,0-0.6c0-0.3-0.3-0.5-0.3-0.7
							c0-0.4,0.4-0.8,0.5-1.3c0.2-0.6,0-1.1,0-1.9c0.6-0.9,1.9-0.5,3.3-0.4c0.2,0,0.4,0,0.6,0c0.8,0,1.4,0.3,1.7-0.4
							c0.1-0.3,0.2-1.2,0.1-1.5c-0.1-0.3-0.6-1-0.9-1.2c-0.4-0.3-1-0.2-1.3-0.6c0.2-0.9,1.2-0.1,1.7-0.3c0.3-0.1,0.3-0.6,0.5-0.7
							c0.2-0.1,0.4,0.2,0.6,0.2c0.2,0,1-0.4,1.2-0.5c0.3-0.2,0.4-0.6,0.6-0.7c0.2-0.1,0.4-0.1,0.6-0.2c0.4-0.2,0.8-0.5,1.1-0.8
							c0.4-0.4,0.5-1,0.9-1c0.6-0.1,1.9,0.1,2-0.5c0.1-0.6-0.5-1.1-0.3-1.7c0.2-0.5,0.6-0.4,1.3-0.7c0.3,0.2,0.2,0.9,0.3,1.2
							c0.4,0,1.2-0.1,1.3-0.5c0.1-0.4-0.6-0.9-0.7-1.2c-0.2-0.3-0.2-0.8-0.5-0.9c-0.7-0.1-1.3,0.9-2.1,0.9c-0.5,0-1.1-0.4-1.2-0.8
							c-0.1-0.2,0-0.4,0-0.7c-0.1-0.4-0.3-0.7-0.2-1.2c0.3-0.6,1.1-0.7,1.6-0.9c0.2-0.1,0.4-0.3,0.6-0.4c0.4-0.1,1,0,1.3-0.2
							c0.2-0.1,0.2-0.4,0.3-0.6c0.1-0.2,0.4-0.3,0.5-0.5c0.1-0.1,0.1-0.3,0.2-0.5c0.4-0.5,1.1-0.6,1.3-1.1c0.1-0.2-0.2-0.3-0.1-0.6
							c0.1-0.3,0.7-0.1,1-0.1c0.4-0.1,0.8-0.6,1.3-0.7c0.5-0.1,1,0,1.5-0.2c0.3-0.1,0.5-0.4,0.8-0.4c0.1,0,0.3,0,0.5,0
							c0.2,0,0.3-0.1,0.6-0.1c0.3,0,0.7,0.1,1.1,0.1c0.7,0,1.3-0.2,1.9,0c0.3,0.1,0.3,0.5,0.6,0.6c0.2,0.1,0.4,0,0.7,0
							c0.4,0,0.9,0.3,1.4,0.4c0.2,0,0.4,0,0.6,0c0.6,0.1,1.3,0.4,1.9,0.6c0.5,0.2,1.6,0.4,1.6,0.9c0,0.6-0.9,0.7-1.3,0.7
							c-0.7,0-1.6-0.4-2.3-0.2c0,1,1.1,1.7,2,1.6c0.1-0.5-0.5-0.2-0.5-0.6c0.4-0.3,0.9,0.2,1.6,0.1c0.2-0.1,0.2-0.4,0.3-0.6
							c0.5-0.3,1.2-0.8,1.9-0.4c0-0.1,0.1-0.1,0.2-0.2c0.1-0.5-0.5-0.7-0.2-1.2c0.2-0.3,1-0.2,1.1,0c0.1,0.3-0.2,0.3-0.2,0.5
							c0.2,0.3,0.5,0.4,0.7,0.4c0.4,0,0.5-0.4,0.9-0.6c0.2-0.1,0.4-0.1,0.6-0.2c0.2-0.1,0.5-0.3,0.6-0.3c0.1,0,0.4,0,0.6,0
							c0.3-0.1,0.5-0.3,0.7-0.3c0.3,0,0.4,0.3,0.8,0.3c0.2,0,0.4-0.1,0.6-0.1c0.2,0,0.4,0,0.6,0c0.4-0.1,0.7-0.3,1-0.3
							c0.2,0,0.7,0.3,0.8,0.2c0.3-0.3-0.4-0.5-0.2-0.7c0.7,0,1.4,0,2,0.1c1,0.1,1.9,0.6,2.8,0.6c-0.1-0.6-0.8-0.4-1.1-0.7
							c-0.1-0.1-0.5-0.7-0.5-0.9c0-0.1,0.5-0.9,0.6-1c0.4-0.4,1.6-0.4,2,0.1c0.2,0.3,0.2,0.8,0.5,0.8c0.3,0,0.5-0.8,0.8-0.8
							c0.3,0,0.4,0.5,0.7,0.5c0.4,0,0.6-0.7,1.1-0.7c0.3,0,0.3,0.1,0.7,0.2c0.3-0.2-0.1-0.4,0-0.6c0.5-0.4,1.6-0.1,2.2-0.3
							c0.2-0.2-0.2-0.3,0-0.6c0.5-0.4,1.4-0.4,2.3-0.6c0.6-0.1,1.1-0.5,1.5-0.5c0.5,0,0.9,0.3,1.3,0.3c0.2,0,0.5-0.1,0.8-0.2
							c0.2-0.1,0.4-0.3,0.6-0.4c0.4-0.1,0.9,0,1.3,0c0.5,0,0.9-0.2,1.2-0.2c0.3,0,0.6,0.4,0.9,0.4c0.9,0.1,1.8-0.1,2.7,0.1
							c0.1,0,0.3,0.2,0.5,0.3c0.6,0.2,0.9,0.1,1,0.8c0.4,0.2,0.7,0.6,1.2,0.7c0.3,0.1,0.7,0,1.1,0c0.5,0,1.2,0,1.6,0.1
							c0.2,0,0.5,0.2,0.7,0.3c0.2,0,0.4,0,0.6,0c0.3,0,0.5,0.1,0.7,0.1c0.5,0,0.8-0.4,1.2-0.5c0.2,0,0.5,0.1,0.6,0.1
							c0.7,0.1,1.6-0.1,2.2,0c0.3,0.1,0.9,0.4,1.2,0.7c0.3,0.2,0.4,0.5,0.6,0.6c0.2,0.1,0.8,0.4,1,0.3c0.3,0,0.3-0.4,0.6-0.5
							c0.9-0.2,2.4,0.3,3.1,0c0.3-0.1,0.2-0.4,0.4-0.6c1.3-0.1,2.6,0.1,3.8,0.1c0.4,0,0.9-0.1,1.3,0c0.4,0.1,0.7,0.5,1.2,0.6
							c0.3,0.1,0.8,0,1.2,0.1c0.3,0.1,0.5,0.2,0.7,0.3c0.5,0.1,0.9-0.1,1.3-0.1c1-0.1,2.3-0.1,3.2,0.3c0.5,0.2,0.7,0.6,1.3,0.7
							c0.8,0.1,2-0.1,2.8,0c0.2,0,0.4,0.1,0.5,0.1c0.3,0,0.4-0.3,0.8-0.3c0.4,0,1.1,0.7,1.7,0.6c0.3-0.2-0.2-0.4,0-0.6
							c0.2-0.2,0.6,0,0.9,0c0.2,0,0.5-0.1,0.6-0.1c0.5,0,0.9,0.5,1.5,0.6c0.5,0.1,1.1,0.1,1.7,0.1c0.4,0,0.8-0.2,1.2-0.1
							c0.2,0,0.4,0.2,0.6,0.2c0.2,0,0.4,0,0.5,0c0.1,0,0.3,0.2,0.4,0.2c0.8,0.2,1.9,0.3,2.7,0.6c0.5,0.2,1,0.5,1.4,0.5
							c0.2,0,0.4-0.1,0.6-0.1c1.3,0,2.8,0.6,2.7,1.8c-1.5,0.3-2.8-1-4.4-0.6c-0.3,0.1-0.5,0.3-0.5,0.6c0.1,0.8,2,0.7,2.1,1.4
							c-0.3,0.2-0.6,0-0.9,0c-0.4,0-1,0.5-1.3,0.7c-0.3,0.3-0.5,1-0.9,1c-0.4,0.1-1-0.4-1.6-0.3c-0.2,0-0.4,0.3-0.6,0.3
							c-0.5,0.1-1.1-0.3-1.4,0.3c0.2,0.4,0.1,0.9,0.4,1.2c0.2,0.1,0.5,0,0.7,0.1c0.3,0.1,0.5,0.5,0.7,0.7c0.2,0.2,0.4,0.2,0.6,0.4
							c0,0.3-0.1,0.4-0.1,0.6c0.1,0.4,0.6,0.4,0.6,0.7c0,0.3-0.4,0.2-0.4,0.6c0,0.2,0.2,0.3,0.3,0.5c0,0.2-0.1,0.4-0.1,0.6
							c0,0.3,0.2,0.5,0.2,0.7c0,0.2-0.2,0.4-0.4,0.5c-0.8-0.5-1.6-1.3-2.5-1.9c-0.9-0.7-2.3-1.6-2.5-3c0-0.2,0.5-0.4,0.6-0.7
							c0-0.1-0.1-0.3,0-0.5c0-0.5,0.4-1,0.4-1.3c0-0.3-0.6-0.9-0.9-1c-0.3,0.1,0,0.4,0,0.6c0,0.3-0.4,0.6-0.6,0.6
							c-0.8,0.1-0.9-1.1-2.2-0.7c-0.3,0.1-0.8,0.6-0.7,1.2c0,0.2,0.6,0.4,0.5,0.6c0,0.2-1.2,0.3-1.4,0.3c-0.7-0.1-1.1-0.6-1.7-0.6
							c-0.3,0-0.6,0.3-0.8,0.3c-1.4,0.2-3.4-0.7-3.8,0.5c-0.1,0.2,0,0.4-0.1,0.6c-0.1,0.2-0.3,0.4-0.3,0.6c-0.1,0.1,0,0.4-0.1,0.6
							c-0.1,0.2-0.9,0.9-0.2,1.1c0.2,0,0.3-0.1,0.5,0c0.4,0.1,1,0.6,1.4,0.6c0.3,0,0.6-0.3,0.8-0.3c0.4,0,0.7,0.2,1,0.4
							c0.3,0.1,0.7,0.4,0.9,0.4c0.4,0,0.2-0.3,0.6-0.4c0.7,0.2,1.1,1,1.8,1.6c0.3,0.2,0.6,0.4,1,0.7c0.2,0.2,0.8,0.6,0.8,0.9
							c0,0.2-0.2,0.3-0.2,0.5c-0.1,0.3,0.1,0.5-0.1,0.6c-0.7-0.3-0.8-0.9-1.3-1.5c-0.2-0.2-0.4-0.5-0.6-0.8
							c-0.1-0.1-0.6-0.6-0.9-0.5c-0.5,0.2,0.3,1,0.4,1.2c0.3,0.4,0.7,0.9,0.7,1.3c0,0.3-0.2,0.7-0.2,1.2c0,0.3,0.1,0.6,0,0.8
							c0,0.3-0.2,0.5-0.3,0.8c-0.1,0.3-0.1,0.7-0.2,0.9c-0.2,0.4-0.7,0.8-1.1,0.9c-0.4,0-0.5-0.3-0.9-0.3c-0.5,0-0.6,0.5-0.9,0.9
							c0,0.4,0.2,0.6,0.1,0.9c-0.1,0.5-0.8,0.5-0.7,1c0,0.4,0.6,0.5,0.9,0.7c0.4,0.3,1.1,0.8,1.4,1.3c0.2,0.3,0.6,0.9,0.6,1.2
							c0,0.4-1.3,1-1.8,0.9c-0.5-0.1-0.3-0.6-0.4-1c-0.1-0.3-0.3-0.5-0.5-0.7c-0.1-0.1,0-0.4-0.1-0.5c-0.3-0.4-0.7-0.2-1.3-0.5
							c-0.4-0.2-0.2-0.6-0.4-0.9c-0.2-0.5-1-0.7-1.6-0.6c-0.5,0.1-0.6,0.5-1,0.6c-0.6-0.4,0.1-1.3-0.6-1.4c-0.6-0.1-1,0.9-1.3,1.1
							c-0.2,0.2-0.7,0.2-0.7,0.5c-0.1,0.5,0.5,0.4,0.9,0.6c0.4,0.2,0.5,0.6,0.8,0.6c0.3,0,0.5-0.3,0.8-0.3c0.5,0,1,0.2,1.3,0.4
							c-0.2,0.5-1.4,0.9-1.4,1.6c0,0.4,0.5,0.5,0.8,0.7c0.3,0.2,0.7,0.9,1.1,1.3c0.2,0.2,0.5,0.3,0.6,0.4c0.2,0.3,0.2,0.6,0.4,0.8
							c0,0.2-0.1,0.3-0.1,0.5c0.1,0.3,0.6,0.3,0.7,0.6c-0.1,0.7,0.2,1.4-0.4,1.7c-0.3,1.3-0.6,2.4-1.5,3.1c-0.8,0.7-1.9,0.8-2.9,1.2
							c-0.3,0.1-0.5,0.4-0.7,0.4c-0.6,0.2-1.6,0.1-1.6,0.8c0,0.3,0.4,0.6,0.5,0.9c0.1,0.5-0.4,1.1-0.8,1.1c-0.3,0-0.8-0.1-0.8-0.6
							c0-0.5,0.6-0.7,0.7-1c0.1-0.5-0.5-1.1-1.1-1c-0.6,0-1.9,1.2-1.9,1.8c0,0.5,0.9,1.4,1.2,1.7c1.2,1.1,2.5,1.7,2.3,4.3
							c-0.3,0.7-1.1,0.8-1.7,1.2c-0.5,0.3-0.7,1.1-1.5,1.2c-0.3-0.1-0.1-0.6-0.2-0.8c-0.1-0.3-0.7-0.5-1.1-0.8
							c-0.3-0.3-0.4-0.7-0.7-0.9c-0.3-0.3-0.8-0.4-1.1-0.6c-0.2-0.1-0.4-0.6-0.6-0.6c-0.4,0-0.2,0.4-0.3,1c-0.1,0.6-0.5,1.1-0.4,1.8
							c0.1,0.3,0.4,0.5,0.6,0.8c0.3,0.5,0.3,1.1,0.6,1.3c0.2,0.2,0.5,0.2,0.8,0.4c0.5,0.3,1.3,1,1.4,1.4c0.2,0.5,0,1,0.1,1.5
							c0.1,0.6,0.9,0.9,0.4,1.5c-0.4-0.1-0.8-0.3-1.1-0.6c-0.6-0.4-0.9-0.7-1.2-1.3c-0.1-0.2-0.3-0.4-0.3-0.5
							c-0.2-0.4-0.1-0.8-0.3-1.3c-0.1-0.4-0.6-1-0.9-1.4c-0.3-0.3-0.8-0.5-0.9-0.9c0-0.6,0.2-1.3,0.2-1.9c0-0.1-0.1-0.3-0.1-0.5
							c0-0.3,0-0.7,0-1c-0.1-0.3-0.3-0.5-0.4-0.8c-0.1-0.2-0.2-0.5-0.3-0.8c-0.2-0.5-0.4-1.5-0.8-1.5c-0.4-0.1-0.9,0.8-1.4,0.8
							c-0.3,0-0.7-0.2-0.7-0.5c-0.1-0.3,0.1-0.5,0.1-0.8c0-0.6-0.4-0.8-0.7-1.2c-0.1-0.2-0.2-0.4-0.3-0.5c-0.2-0.2-0.6-0.4-0.8-0.6
							c-0.2-0.2-0.5-0.6-0.6-0.8c-0.2-0.3-0.2-0.8-0.5-0.8c-0.2,0-0.5,0.3-0.8,0.4c-0.3,0.1-0.9,0.2-1.2,0.2
							c-0.9,0.1-1.6-0.2-1.5,0.9c-0.1,0.5-0.6,0.5-0.9,0.7c-0.4,0.3-0.7,0.8-1.2,1.3c-0.2,0.2-0.5,0.4-0.7,0.6
							c-0.2,0.2-0.2,0.4-0.4,0.6c-0.5,0.4-1.1,0.5-1.5,1.1c0,0.7,0.3,1.3,0.3,1.9c0,0.3-0.3,0.6-0.3,0.9c0,0.3,0.1,0.6,0,0.9
							c0,0.2-0.2,0.2-0.3,0.4c-0.1,0.2-0.2,0.4-0.3,0.5c-0.1,0.2-0.4,0.3-0.5,0.5c-0.2,0.3-0.3,0.4-0.5,0.5
							c-0.9,0.1-1.2-1.7-1.6-2.4c-0.2-0.3-0.6-0.7-0.8-1.1c-0.2-0.5-0.3-1.1-0.6-1.6c-0.3-0.5-0.6-0.9-0.8-1.4
							c-0.2-0.4-0.3-0.9-0.4-1.4c-0.2-0.5-0.3-1.1-0.3-1.5c0-0.6,0.1-0.9-0.3-1.1c-0.4,0.1-0.6,0.5-1.1,0.5c-0.5,0-1.7-0.8-1.3-1.5
							c-0.3-0.4-1.1-0.7-1.6-1.2c-0.3-0.3-0.6-1-1.2-1c-0.2,0-0.4,0.1-0.5,0.1c-0.4,0-1,0-1.4,0c-0.5,0-1.2,0.2-1.8,0.1
							c-0.4,0-0.9-0.1-1.4-0.2c-0.6-0.1-1.3-0.2-1.6-0.5c-0.2-0.2-0.3-0.7-0.6-0.8c-0.4-0.1-0.6,0.2-1,0.3c-0.8,0.2-1.4-0.2-2-0.5
							c-0.4-0.3-0.7-0.4-1-0.6c-0.7-0.4-0.8-1.8-1.8-1.8c-0.3,0-0.9,0.2-0.9,0.6c0,0.3,0.3,0.8,0.5,1c0.5,0.7,1.4,0.9,1.6,1.9
							c0.2,0.1,0.5-0.2,0.7,0c0.2,0.4,0,1.1,0.4,1.3c1.8,0.3,2.3-0.7,3.1-1.4c0.5,0.3,0.3,0.6,0.5,0.9c0.2,0.3,0.4,0.6,0.7,0.7
							c0.2,0.1,0.5,0,0.8,0.1c0.2,0.1,1.1,0.9,1.1,1.2c0,0.3-0.6,1.1-0.7,1.3c-0.2,0.2-0.4,0.3-0.5,0.5c-0.1,0.1,0,0.5-0.1,0.6
							c-0.1,0.2-0.5,0.4-0.7,0.6c-0.2,0.2-0.5,0.4-0.7,0.6c-0.3,0.2-0.4,0.5-0.7,0.6c-0.6,0.2-1.1,0.1-1.6,0.4
							c-0.3,0.2-0.3,0.7-0.7,0.9c-0.4,0.3-1.1,0.3-1.6,0.5c-0.4,0.2-0.6,0.5-0.9,0.6c-0.1,0-0.3,0-0.4,0c-0.3,0.1-0.6,0.3-0.8,0.3
							c-0.2,0.1-0.4,0-0.6,0.1c-0.7,0.2-1.3,0.9-1.9,0.5c-0.3-0.7-0.4-1.6-0.7-2.3c-0.2-0.3-0.6-0.4-0.7-0.8c0-0.3,0.3-0.2,0.3-0.4
							c-0.1-0.5-0.5-0.7-0.8-1.1c-0.1-0.2-0.2-0.5-0.3-0.7c-0.5-0.7-1.5-1.1-1.7-2.1c-0.1-0.3,0-0.5,0-0.6c-0.1-0.3-0.3-0.7-0.5-0.9
							c-0.2-0.2-0.5-0.3-0.7-0.6c-0.1-0.2-0.2-0.4-0.3-0.6c-0.4-0.8-1-1.5-1.7-2.1c-0.4,0.1-0.7,0.1-0.9,0.3c0.2,0.6,0.4,1,0.7,1.5
							c0.3,0.4,0.6,0.9,0.8,1.4c0.1,0.2,0.1,0.4,0.1,0.6c0.3,0.7,1.1,0.9,1.3,1.7c0.1,0.5,0,0.9,0.1,1.4c0.1,0.5,0.9,0.8,1.2,1.3
							c0.3,0.4,0.3,1,0.4,1.3c0.3,0.6,1,0.8,1.5,1.2c0.5,0.3,0.8,0.8,1.2,1.2c0.2,0.2,0.5,0.2,0.6,0.5c0.1,0.3-0.1,0.4-0.2,0.6
							c0.3,0.3,0.7,1,1.2,1c0.2,0,0.5-0.2,0.9-0.3c0.2,0,0.4,0,0.5,0c0.2,0,0.4-0.2,0.7-0.3c0.4-0.1,0.9-0.1,1.5-0.1
							c0.5-0.1,0.9-0.5,1.3-0.4c0.4,0.5,0.1,1,0,1.5c0,0.2,0,0.3-0.1,0.5c-0.2,0.8-0.8,1.3-1.1,2c-0.1,0.2-0.1,0.5-0.2,0.7
							c-0.3,0.7-1,1.4-1.5,1.9c-0.3,0.3-0.6,0.6-0.9,0.9c-0.3,0.3-0.7,0.4-1,0.6c-0.7,0.5-1.4,1.2-1.9,1.9c-0.2,0.3-0.3,0.6-0.5,0.8
							c-0.3,0.3-0.7,0.5-0.9,0.8c-0.2,0.2-0.3,0.7-0.5,1.1c-0.2,0.5-0.7,0.8-0.6,1.5c0,0.3,0.3,0.4,0.3,0.7c0.1,0.5,0,0.8,0,1.3
							c0.2,0.6,0.4,1.2,0.9,1.6c0.1,0.9-0.1,1.7,0,2.5c0,0.5,0.2,0.8,0,1.2c-0.2,0.4-0.8,1.1-1.2,1.3c-0.4,0.3-1,0.3-1.5,0.6
							c-0.3,0.2-0.6,0.6-0.9,0.9c-0.5,0.4-1.2,0.8-1.2,1.2c0,0.2,0.2,0.6,0.3,0.9c0.2,0.6,0.3,1.6,0,2.2c-0.3,0.7-1.9,0.6-2.1,1.4
							c-0.1,0.2,0.1,0.4,0.1,0.7c0,0.2-0.3,1-0.4,1.2c-0.2,0.4-0.6,0.5-0.9,0.8c-0.4,0.4-0.5,0.9-0.9,1.3c-0.5,0.5-1.2,1.1-1.9,1.6
							c-0.6,0.4-1.6,0.8-2.5,0.9c-0.5,0-1.1-0.1-1.6,0c-0.2,0-0.4,0.2-0.7,0.3c-0.2,0-0.3,0-0.5,0c-0.3,0-0.5,0.3-0.8,0.3
							c-0.6,0-1.3-0.7-1.3-1.3c0-0.3,0.2-0.5,0.2-0.7c0-0.3-0.3-0.6-0.6-1.1c-0.3-0.5-0.4-1-0.6-1.4c-0.3-0.4-0.6-0.6-0.8-0.9
							c-0.4-0.7-0.4-1.4-0.6-2.2c0-0.3-0.2-0.5-0.3-0.9c0-0.4,0-0.8,0-1.2c-0.1-0.3-0.3-0.5-0.5-0.8c-0.3-0.6-0.5-1.3-0.8-1.7
							c-0.2-0.4-0.7-0.8-0.8-1.3c0-0.3,0-0.9,0.1-1.2c0-0.3,0.3-0.5,0.3-0.9c0-0.2,0-0.5,0-0.7c0.2-1,1.3-1.3,1.2-2.5
							c-0.1-0.5-0.4-0.8-0.5-1.3c0-0.3,0.1-0.5,0.1-0.8c0-0.4-0.3-0.9-0.5-1.2c-0.4-1-0.7-1.8-1.3-2.5c-0.3-0.4-0.8-0.7-1.1-1
							c-0.2-0.3-0.5-0.8-0.5-1.1c0-0.2,0.2-0.4,0.3-0.6c0.1-0.3,0.1-0.9,0.2-1.4c0.1-0.2,0.3-0.8,0.3-1.2c0-0.4-0.6-1.1-1-1.2
							c-0.6-0.1-1.2,0.2-2,0.1C269.5,307.5,269.5,306.5,268.6,306.3z M292.4,321.7c0.2-0.3,0.4-1.2,0-1.4c0,0-0.1,0-0.1,0
							C292.1,320.7,291.9,321.5,292.4,321.7z M291.8,312.7c0.1-0.3,0.5-0.6,0.4-1c-0.1-0.8-1.7-0.4-1.9,0.2
							c-0.1,0.4,0.1,0.7-0.1,1.1c0.2,0.3,0.6,0.4,1.1,0.3C291.7,313.3,291.7,313,291.8,312.7z M289.2,317.2c0.2-0.3-0.3-0.5-0.3-0.9
							c-0.1-0.4,0.1-0.9-0.3-1.1c0,0-0.1,0-0.1,0C288.1,315.9,288.6,317.1,289.2,317.2z M318.5,274.4c-0.2-0.3-0.6,0.1-0.4,0.4
							C318.4,274.8,318.5,274.6,318.5,274.4z M308.5,276.2c0.7-0.1,0-1.3-0.5-1.1C307.3,275.2,308,276.3,308.5,276.2z M305.3,281.7
							c0.2-1.5-0.9-1.6-1.2-2.7c0.1,0,0-0.1,0.1-0.1c0.3-0.1,0.7,0.2,0.9-0.1c0-0.5-0.6-0.9-1.3-0.6c-0.2-0.1-0.2-0.4-0.3-0.7
							c-0.5-0.3-1.7-0.9-1.7-1.5c0-0.5,0.6-0.7,1.3-0.7c0.3-0.2,0.1-0.9-0.2-1.1c-1.1-0.2-1.7-0.1-2.4,0.4c-0.3,0.2-0.7,0.4-0.9,0.6
							c-0.2,0.1-0.4,0.5-0.4,0.7c0,0.3,0.4,0.4,0.6,0.8c0.1,0.2,0.1,0.4,0.1,0.6c0.2,0.4,0.7,0.7,1,1c0.3,0.2,1,0.8,1,1.1
							c0,0.2-0.2,0.3-0.3,0.6c-0.1,0.3-0.2,0.9-0.1,1.1c0.1,0.5,0.6,0.5,1,0.7c0.4,0.2,0.9,0.5,1.3,0.6
							C304.5,282.2,305,282,305.3,281.7z M295.2,278.6c1.2-0.2,0.6-1.2,0-1.6c-0.4-0.3-1-0.5-1.5-0.8c-0.3-0.2-1.5-0.5-1.5-0.9
							c0-0.4,0.9-0.5,0.5-1.3c-0.6-0.1-2,0.1-1.9,0.7c0.1,0.4,0.5,0.2,0.6,0.6c-0.4,0.2-0.9,0.5-1.4,0.5c-0.5-0.1-0.7-0.7-0.9-1.1
							c-0.4,0-0.7-0.4-1.2-0.3c-0.5,0.1-0.8,0.8-1,1.2c-0.1,0.2-0.4,0.3-0.4,0.5c0,0.1,0,0.3,0,0.4c-0.1,0.5-0.6,0.7-0.5,1.1
							c0,0.4,0.4,0.5,0.5,0.9c0,0.3-0.6,0.2-0.5,0.6c0.8,0.6,0.8-0.3,1.2-0.4c0.3-0.1,0.9,0.1,1.3,0c0.3-0.1,0.6-0.4,0.9-0.5
							c0.2-0.1,0.5-0.2,0.8-0.2c1.4-0.1,2.3,0.8,3.4,0.9C294.1,278.7,294.8,278.7,295.2,278.6z M292.4,283.7c0-0.5-0.2-0.8-0.2-1.5
							c-0.8-0.5-1.4,0.4-2.2,0.3c-0.5-0.1-0.9-0.6-1.4-0.6c-0.3,0-0.4,0.4-0.7,0.5c-0.6,0.1-0.9-0.5-1.6-0.3
							c-0.9-0.7-1.3-1.8-1.6-3.1c-0.5-0.7-1.3-0.1-1.6,0.3c-0.2,0-0.5-0.1-0.6,0.1c-0.2,0.8,1.1,0.9,1.1,1.4c0,0.4-0.5,0.3-0.7,0.6
							c-0.2,0.3-0.1,0.5-0.4,0.6c-0.8,0.1-1.1-0.4-1.1-1.1c-0.4-0.6-0.8-1-1.2-1.4c-0.1-0.2-0.3-0.4-0.3-0.7c0-0.2,0.1-0.5,0-0.7
							c-0.1-0.4-0.9-0.7-1.3-0.9c-0.5-0.2-1.1-0.5-1.5-0.8c-0.3-0.2-0.4-0.6-0.6-0.7c-0.2-0.1-0.4-0.1-0.6-0.2
							c-0.2-0.2-0.2-0.4-0.5-0.5c-0.2-0.1-0.4,0.2-0.5,0.3c-0.2,0.9,0.6,1,0.9,1.4c0.2,0.3,0.4,0.7,0.6,0.9c0.3,0.2,0.6,0.2,0.9,0.3
							c0.2,0.1,0.4,0.4,0.6,0.5c0.4,0.3,1.1,0.3,1.1,0.8c-0.3,0.2-0.8-0.3-1,0.2c-0.1,0.3,0.2,0.4,0.2,0.7c0,0.4-0.5,0.9-0.9,0.8
							c0-0.3,0.2-0.5,0.2-0.7c0-0.5-1.1-1.4-1.7-1.6c-0.3-0.1-0.6-0.1-0.8-0.3c-0.4-0.2-1.2-0.8-1.4-1.2c-0.3-0.4-0.6-1.2-1.2-1.1
							c-0.3,0-0.5,0.3-0.7,0.4c-0.2,0.1-0.4,0.2-0.6,0.3c-0.3,0.2-0.5,0.3-0.7,0.3c-0.5,0-1-0.4-1.5-0.3c-0.2,0-0.3,0.2-0.5,0.3
							c0,0.3,0.1,0.4,0,0.7c-0.1,0.2-0.6,0.2-0.9,0.4c-0.4,0.2-0.8,0.7-1.2,1.1c-0.2,0.2-0.4,0.4-0.5,0.6c0,0.1,0.1,0.4,0.1,0.6
							c0,0.2-0.4,0.6-0.7,0.8c-0.2,0.1-0.4,0.1-0.5,0.2c-0.3,0.2-0.5,0.5-0.8,0.5c-0.8,0.1-2.1-0.2-2.1,0.6c0,0.5,0.7,0.5,1.2,0.5
							c0.6,0,1.1,0.1,1.5,0c0.2-0.1,0.5-0.3,0.7-0.4c0.2-0.1,0.3-0.1,0.4-0.1c0.3-0.1,0.4-0.3,0.6-0.4c0.4-0.2,1.1-0.3,1.6-0.3
							c0.6,0,1.2,0.1,1.9,0c0.3,0,0.5-0.2,0.8-0.2c0.5,0,1.1,0.2,1.5,0.2c0.3,0,0.6-0.3,0.9-0.3c0.3,0,0.7,0.3,0.8,0.5
							c0,0.1-0.1,0.3,0,0.5c0,0.3,0.3,0.4,0.3,0.6c0,0.3-0.7,0.6-0.6,0.9c0.1,0.2,0.5,0.4,0.8,0.6c0.2,0.1,0.7,0.4,0.9,0.4
							c0.2,0,0.5-0.1,0.7,0c0.4,0,1,0.3,1.2,0.4c0.4,0.3,0.3,0.7,0.8,0.9c0.2,0.1,0.6,0,0.8,0.1c0.6,0.1,1.1,0.7,1.6,0.6
							c0.7-0.1,0.4-0.8,0.5-1.2c0.2-1.1,2.3-1,2.8-0.3c0.3,0.1,0.6,0,0.9,0.1c0.2,0.1,0.4,0.3,0.6,0.3c0.2,0,0.4,0,0.6,0
							c0.8,0.1,1.6,0.7,2.3,0.6c0.5-0.1,0.8-0.5,1.2-0.5c0.8-0.1,1.4,0.6,2.2,0.3c0.7-0.2,0.5-0.9,0.7-1.6
							C292.1,284.4,292.4,284.1,292.4,283.7z M338.9,269c0.2-0.5-0.1-1.1-0.4-1.5c-0.5,0.1-0.1,0.6-0.2,0.9c0,0.4-0.5,0.7-0.5,1.2
							c-0.2,0.2-0.4,0.3-0.5,0.6c0.3,0.2,0.4-0.1,0.6-0.3C338.3,269.6,338.8,269.4,338.9,269z M327.6,254.1c-0.5,0-0.7,0.2-0.9,0.3
							c-0.2,0.1-0.5,0.1-0.4,0.4C326.7,254.7,327.5,254.6,327.6,254.1z M309.4,259.4c1,0.2,1.5-0.9,0.8-1.6
							c-0.2-0.2-0.7-0.2-0.9-0.6c-0.3-0.4-0.2-1-0.9-0.9c0,0,0,0.1,0,0.1c-0.1,0.9,1.3,1.2,1.3,1.9
							C309.7,258.9,309.3,258.9,309.4,259.4z"/>
						<path class="st27" d="M295.2,257.7c-0.1-0.5,0.8-0.4,0.6,0C295.7,257.9,295.3,257.9,295.2,257.7z"/>
						<path class="st27" d="M289.9,283.5c0-0.4,0.8-0.5,1-0.2C290.9,283.7,290.1,283.9,289.9,283.5z"/>
						<path class="st27" d="M275.2,281.2c0.4-0.4,1.4-0.1,2.1-0.1c-0.1,0.3-0.1,0.8-0.4,0.9C276.1,281.9,275.5,281.7,275.2,281.2z"
							/>
						<path class="st27" d="M272,278.9c0.6-0.6,1.2-0.3,1,0.9c-0.1,0.4-0.8,0.8-1,0.3C272.1,279.7,272,279.4,272,278.9z"/>
						<path class="st27" d="M272.9,277.5c0,0.4-0.1,0.5-0.3,0.6C272,278,272.4,277,272.9,277.5z"/>
						<path class="st27" d="M264.5,268.8c0-0.2-0.1-0.6-0.4-0.7c-0.1-0.1-0.4,0-0.5-0.1c-0.4-0.2-0.6-0.7-0.8-0.8
							c0-0.5-0.1-0.8,0-1.1c0.1-0.2,0.6-0.7,0.9-0.8c0.4-0.1,0.8,0,1-0.3c0.1,0,0.2,0,0.2,0c0,0.3-0.2,0.3-0.3,0.6
							c0.1,0.4,0.7,0.1,0.8,0.5c-0.1,0.4-0.4,0.5-0.4,0.8c0,0.3,0.5,0.7,0.8,1.1c0.2,0.2,0.5,0.4,0.7,0.7c0.1,0.2,0.2,0.5,0.3,0.6
							c0.2,0.2,0.7,0.3,0.8,0.6c0,0.4-0.5,0.6-0.4,1c-0.6,0.5-1.6,0.2-2.5,0.3c-0.4,0.1-0.9,0.5-1.4,0.1c-0.1-0.3,0.4-0.3,0.4-0.6
							c0-0.3-0.4-0.2-0.4-0.4c0.1-0.3,0.5-0.4,0.5-0.9C264,269,264.5,269.1,264.5,268.8z"/>
						<path class="st27" d="M261.3,267.7c0.6-0.4,1.6-0.1,1.6,0.3c0,0.3-0.3,0.4-0.4,0.7c-0.1,0.3,0,0.7-0.1,0.9
							c-0.1,0.2-0.5,0.2-0.7,0.3c-0.5,0.2-1.6,0.8-2,0.1c0.1-0.4,0.4-0.5,0.6-0.8c0-0.2-0.3-0.4-0.2-0.6c0.1-0.3,0.3-0.2,0.6-0.3
							C260.9,268.2,261,267.9,261.3,267.7z"/>
						<path class="st27" d="M231.9,258.4c0.1,0.4-1.1,0.9-1.3,0.4C230.5,258.4,231.6,257.9,231.9,258.4z"/>
						<path class="st27" d="M230.4,355.5c-0.2,0-0.4,0-0.6,0C229.9,355.4,230.3,355.4,230.4,355.5z"/>
						<path class="st27" d="M228.5,255.3c0.1-0.1,0.2-0.1,0.3,0c0,0.1-0.1,0.2-0.3,0.2C228.5,255.4,228.5,255.4,228.5,255.3z"/>
						<path class="st27" d="M224.7,262.2c0,0.2-0.9,0.6-0.9,0.2c0-0.1,0-0.2,0.2-0.3C224.1,261.9,224.7,261.9,224.7,262.2z"/>
						<path class="st27" d="M206.8,302.2c0,0.1-0.1,0.1-0.1,0.2C206.2,302.3,206.6,301.8,206.8,302.2z"/>
						<path class="st27" d="M189.3,272.1c0.3-0.2,0.6,0.3,0.4,0.5C189.3,272.6,189.2,272.2,189.3,272.1z"/>
						<path class="st27" d="M236.2,273.7c-0.2-0.1-0.5,0-0.7-0.1c-0.2,0-0.5-0.1-0.7-0.1c-0.5-0.1-1.1,0.1-1.4-0.2
							c0.5-0.7,1.2-1.4,1.9-1.9c0.2-0.2,0.6-0.3,0.5-0.6c-0.4-0.3-0.8,0-1.2,0.2c-0.4,0.2-0.8,0.5-1.2,0.6c-0.7,0.1-1.7-0.2-2.2,0.2
							c-0.1,0.3,0.7,0.2,0.6,0.7c-0.3,0-0.6,0.1-0.8-0.1c-0.2-0.2-0.1-0.5-0.2-0.6c-0.2-0.2-1.1-0.2-1.4-0.2
							c-0.5,0.1-0.9,0.3-0.9,0.7c0.5,0.3,1.4-0.3,1.6,0.4c-0.3,0.5-1,0.8-0.9,1.6c0,0.3,0.4,0.6,0.6,0.7c0.2,0,0.4-0.2,0.6-0.2
							c0.2,0,0.2,0.3,0.5,0.3c0.4-0.2,0.6-0.8,1.1-0.7c0.6,0.7-0.5,1-1.1,1.2c-0.7,0.3-1.6,0.4-2.1,0.6c-0.3,0.1-1.3,1.1-1.5,0.3
							c-0.1-0.6,0.5-0.4,0.6-0.9c-0.7-0.1-1.3,0.3-1.9,0.5c-0.9,0.3-2.3,0.5-2.5,1.5c0,0.2,0.1,0.6,0,0.7c-0.1,0.1-0.7,0.1-1,0.2
							c-0.4,0.1-0.8,0.4-1,0.5c-0.2,0.1-0.5,0-0.6,0.1c-0.3,0.1-0.5,0.6-0.9,0.9c-0.2,0.1-0.5,0.2-0.6,0.3c-0.2,0.2-0.3,0.8-0.6,0.9
							c-0.3,0-0.5-0.2-0.7,0c0,0.5,0.2,1.3,0,1.9c-0.5,0.4-1.1,0.7-1.7,1.1c-0.4,0.2-0.7,0.3-1.1,0.5c-0.3,0.2-0.6,0.5-0.9,0.7
							c-0.8,0.5-1.8,1.1-1.8,2.3c0,0.3,0.1,0.6,0.2,0.9c0,0.2,0,0.4,0,0.6c0.1,0.5,0.4,1,0,1.3c-0.6-0.2-1.3-0.3-1.7-0.7
							c-0.1-0.4,0.2-0.8,0.2-1.2c0-0.3-0.5-0.9-0.7-0.9c-0.3,0-0.5,0.2-0.8,0.2c-0.3,0-0.6-0.5-1-0.5c-0.6-0.1-1.1,0.1-1.7,0
							c-0.6,0.3-0.8,1-1.6,0.9c-0.3,0-0.5-0.2-0.9-0.3c-0.4-0.1-0.9-0.2-1.2-0.2c-0.7,0-1.3,0.6-1.9,0.9c-0.6,0.3-1.3,0.6-1.5,1.2
							c-0.1,0.3,0,0.8-0.1,1.1c-0.1,0.2-0.2,0.4-0.3,0.6c-0.5,0.9-0.9,2-0.5,3.3c0.1,0.2,0.5,1.2,0.7,1.5c0.2,0.2,0.9,0.6,1.2,0.6
							c0.3,0,0.7-0.2,1-0.2c0.4-0.1,0.8-0.1,1.1-0.2c0.9-0.3,0.7-1.6,1.7-2c0.4-0.2,0.9-0.2,1.6-0.3c0.2,0.2,0.3,0.5,0.3,0.8
							c0,0.2-0.2,0.4-0.3,0.7c-0.1,0.3-0.1,0.6-0.2,0.8c-0.1,0.3-0.4,0.5-0.5,0.8c-0.1,0.2,0,0.4-0.1,0.6c-0.1,0.3-0.5,0.5-0.3,0.8
							c0.9,0.4,2-0.1,2.8,0c0.3,0.1,1,0.5,1,1c0,0.4-0.3,0.6-0.3,1.1c-0.1,0.5-0.3,1.2-0.3,1.6c0,0.7,1,1.9,1.8,1.9
							c0.8,0,1.3-0.8,2.3-0.4c0.3,0.1,0.7,0.7,1,0.6c0.3,0,0.7-0.5,0.9-0.9c0.2-0.4,0.3-0.8,0.7-1c0.5-0.2,0.8-0.1,1.4-0.3
							c0.3-0.1,0.5-0.3,0.7-0.4c0.2-0.1,0.4-0.5,0.7-0.3c0.3,0.3-0.4,0.5-0.1,0.9c0.6,0.3,0.9-0.6,1.3-0.6c0.1,0,0.6,0.3,0.9,0.4
							c0.3,0.2,0.5,0.5,0.8,0.6c0.2,0,0.6-0.1,0.9,0c0.4,0.1,0.7,0.4,1,0.4c0.4,0,0.6-0.5,0.9-0.5c0.8-0.1,1,0.1,1.4,0.6
							c0.4,0.1,0.4-0.4,0.7-0.3c-0.2,0.4,0.1,0.5,0.2,0.9c0.1,0.2,0.1,0.3,0.2,0.4c0.2,0.2,0.6,0.2,0.9,0.4c0.3,0.2,0.5,0.6,0.9,1
							c0.4,0.4,1,0.9,1.5,0.9c0.5,0,0.9-0.1,1.3-0.1c0.9,0.1,1.4,0.6,2.1,1c0.3,0.3,0.7,0.5,0.8,0.8c0.1,0.2,0,0.5,0.1,0.8
							c0.2,0.5,1,0.8,0.7,1.7c0.1,0.3,0.4,0.4,0.7,0.6c0.3,0.2,0.5,0.5,0.7,0.5c0.2,0,0.4-0.1,0.5,0c0.5,0,0.8,0.2,1.3,0.4
							c0.3,0.1,0.6,0.1,0.8,0.3c0.2,0.1,0.2,0.6,0.5,0.8c0.2,0.1,0.6,0,0.9,0c0.5,0.1,1.1,0.3,1.5,0.3c0.3,0,0.5-0.1,0.7-0.1
							c1.1,0.1,1.7,1.3,2.7,1.7c0.3,0.1,0.8,0,1,0.1c0.4,0.2,0.7,1.3,0.7,1.9c0.1,1.6-1.1,2.1-1.8,3.1c-0.1,0.2-0.2,0.6-0.4,0.9
							c-0.4,0.6-0.9,0.7-0.8,1.9c0,0.3,0.2,0.6,0.2,0.9c0,0.4,0,1-0.1,1.3c-0.1,0.3-0.3,0.5-0.3,0.8c0,0.3,0.1,0.5,0,0.7
							c0,0.2-0.3,0.6-0.5,0.9c-0.4,0.7-0.5,1.6-1.3,1.9c-0.5,0.2-1.1,0.1-1.6,0.3c-0.2,0.1-0.5,0.3-0.7,0.4c-0.7,0.3-1.8,0.8-2,1.6
							c-0.2,0.7,0.3,1.2,0.1,2c-0.1,0.2-0.3,0.5-0.5,0.7c-0.2,0.2-0.3,0.5-0.5,0.8c-0.3,0.3-0.7,0.5-0.8,0.9c-0.1,0.1,0,0.3-0.1,0.6
							c0,0.1-0.2,0.2-0.3,0.4c-0.1,0.2-0.1,0.3-0.1,0.5c-0.2,0.4-0.8,1.3-1.2,1.4c-0.9,0.3-1.8-0.4-2.5-0.3c0.1,0.4,0.4,0.4,0.6,0.7
							c0.1,0.2,0.2,0.4,0.3,0.6c0.2,0.2,0.4,0.3,0.4,0.6c0,0.5-0.4,1.1-0.6,1.3c-0.3,0.2-0.8,0.3-1.3,0.3c-0.3,0.1-1.1,0.1-1.3,0.3
							c-0.2,0.3,0.1,1,0,1.3c-0.3,0.6-1.2,0-1.6,0.2c0,0.3,0.1,0.7,0.3,0.8c0.3,0.2,0.7,0,0.9,0.3c-0.1,0.4-0.5,0.5-0.6,0.9
							c0,0.4,0.1,0.5,0.1,0.8c-0.1,0.6-1,0.5-0.9,1.1c0,0.9,1.7,0.5,1.7,1.4c0,0.5-0.5,0.5-0.6,1c-0.1,0.3,0.1,0.3,0,0.6
							c-0.1,0.3-0.4,0.4-0.4,0.7c0,0.4,0.6,0.9,0.9,1.2c0.3,0.3,0.7,0.8,1.1,1c0.6,0.3,1.5,0.3,1.8,0.9c-0.1,0.4-0.4,0.5-0.8,0.6
							c0,0-0.1,0-0.1,0c-0.1-0.1-0.5-0.1-0.6,0c-0.2,0-0.4,0-0.6,0c-0.6-0.3-1.3-0.4-2-0.7c-0.3-0.1-0.5-0.3-0.8-0.4
							c-0.2-0.1-0.4-0.1-0.6-0.2c-0.4-0.2-0.8-0.8-1.2-1.1c-0.2-0.2-0.6-0.2-0.7-0.4c-0.1-0.1-0.2-0.5-0.3-0.6
							c-0.1-0.2-0.4-0.3-0.6-0.6c-0.4-0.5-0.8-1.1-0.8-1.5c0-0.3,0.3-0.6,0.2-0.9c-0.1-0.3-0.8-0.2-0.9-0.6
							c-0.1-0.2,0.2-0.6,0.2-0.9c0-0.2-0.3-0.4-0.2-0.7c0.2-0.3,0.4,0,0.7-0.1c-0.2-0.6,0-1.6-0.6-1.8c-0.3,0.3,0.3,0.9-0.2,1
							c-0.5-0.2-0.4-0.9-0.5-1.4c-0.1-0.3-0.2-0.6-0.3-1c0-0.2,0.1-0.4,0-0.6c-0.1-0.6-0.7-1.1-0.8-1.6c0-0.3,0.2-0.5,0.2-0.8
							c0-0.2,0-0.4,0-0.6c0-0.3,0.2-0.5,0.2-0.8c0.1-0.5,0-1.3-0.1-1.7c-0.1-0.5-0.5-0.9-0.6-1.5c0-0.2,0.1-0.5,0-0.8
							c0-0.2-0.1-0.5-0.2-0.7c0-0.2,0.1-0.5,0.1-0.8c0-0.5-0.1-1.1-0.1-1.7c0-0.2,0.1-0.3,0.1-0.4c0-0.4-0.2-0.9-0.2-1.3
							c0-0.8,0.1-1.4,0-2.2c-0.1-0.6-0.2-1.4-0.4-1.8c-0.2-0.4-1.1-1.1-1.6-1.3c-0.3-0.2-0.7-0.2-1-0.4c-0.7-0.3-2.1-1.1-2.4-1.8
							c-0.1-0.2-0.1-0.5-0.2-0.7c-0.2-0.4-0.6-0.8-0.9-1.2c-0.5-0.8-1-1.8-1.5-2.7c-0.3-0.4-0.5-0.9-0.8-1.2
							c-0.2-0.2-0.7-0.4-0.8-0.7c-0.1-0.4-0.4-0.9-0.3-1.2c0.1-0.4,0.9-0.7,0.9-1.1c0-0.3-0.4-0.5-0.5-0.8c-0.2-0.7,0.1-1,0.4-1.6
							c0.1-0.2,0.2-0.5,0.3-0.6c0.2-0.2,0.5-0.3,0.7-0.6c0.1-0.1,0.2-0.4,0.3-0.6c0.3-0.4,0.9-0.6,1-1c0.1-0.3,0.2-1.9,0-2.5
							c-0.1-0.3-0.4-0.6-0.5-0.9c-0.2-0.5-0.2-1.1-0.8-1.1c-0.3,0-0.6,0.4-0.8,0.6c-0.1,0.3,0,0.6-0.3,0.7c-0.5,0.1-0.7-0.5-1.2-0.7
							c-0.2-0.1-0.6-0.1-0.7-0.1c-0.4-0.2-0.6-0.8-1-1c-0.4-0.2-0.7-0.1-0.9-0.4c-0.1-0.2,0-0.6,0-0.9c-0.5-0.3-0.9-1.3-1.4-1.6
							c-0.4-0.2-0.9-0.1-1.4-0.3c-0.2-0.1-0.4-0.2-0.6-0.2c-0.3-0.1-0.6-0.1-0.8-0.2c-0.9-0.4-1.3-1.8-2.4-1.8
							c-0.5,0-0.9,0.4-1.3,0.4c-0.4,0-1.1-0.3-1.6-0.6c-0.5-0.2-1.1-0.4-1.6-0.6c-0.4-0.2-0.6-0.5-0.9-0.6c-0.2-0.1-0.6-0.1-0.8-0.2
							c-0.3-0.1-0.6-0.4-0.9-0.6c-0.3-0.2-0.7-0.6-0.7-0.9c0-0.3,0.3-0.6,0.3-0.9c0.1-1-0.6-1.8-1.1-2.4c-0.4-0.5-0.8-0.8-1.1-1.2
							c0-0.3,0-0.3,0-0.6c-0.3-0.3-0.5-0.6-0.8-1c-0.3-0.4-0.8-0.7-0.8-1.1c-0.1-0.5,0.2-0.9,0-1.4c-0.3-0.8-1.4-0.4-1.3,0.6
							c0,0.3,0.4,0.7,0.6,0.9c0.1,0.3,0.1,0.6,0.2,1c0.1,0.3,0.4,0.6,0.6,1c0.2,0.6,0.2,1.2,0.3,1.6c0.1,0.3,0.7,0.6,0.4,1
							c-0.4,0.1-0.6-0.3-0.8-0.6c-0.1-0.1-0.7-0.4-0.7-0.7c-0.1-0.3,0.2-0.6,0.1-0.9c-0.1-0.6-1.4-0.6-1.4-1.2
							c0-0.4,0.5-0.4,0.5-0.8c0-0.4-0.6-0.8-0.7-1.1c-0.1-0.3-0.1-0.8-0.2-1.3c0-0.4,0-0.9-0.1-1.3c-0.1-0.3-0.5-0.7-0.8-0.9
							c-0.4-0.2-0.7-0.1-0.9-0.4c-0.2-0.3-0.3-0.8-0.3-1.1c-0.1-0.5,0-1.1,0-1.6c0-0.6-0.1-1.1,0-1.7c0.2-0.4,0.6-0.6,0.8-1
							c0.2-0.3,0.2-0.6,0.3-0.9c0.3-0.6,1-1.1,1.5-1.6c0.5-0.6,1-1.2,1.2-1.9c0.1-0.2,0.4-0.8,0.3-1.1c-0.1-0.4-0.8-0.8-0.8-1.2
							c0-0.3,0.5-0.3,0.6-0.6c0.1-0.2,0.1-0.6,0.1-0.8c0-0.4-0.2-0.8-0.1-1.3c0.1-0.4,0.6-0.5,0.3-0.9c-0.3-0.4-0.8,0.2-1.1,0
							c-0.3-0.2,0.1-0.5,0.1-1c0-0.2-0.1-0.4-0.1-0.5c0-0.2,0.4-0.5,0.3-0.6c-0.2-0.3-0.5-1-1-1.3c-0.6-0.3-1.3-0.1-2.2-0.3
							c-0.5-0.1-0.8-0.6-1.3-0.6c-0.3,0-0.5,0.4-0.9,0.6c-0.4,0.2-1,0.1-1.4,0.2c-0.4,0.1-0.6,0.4-1,0.3c-0.4,0-0.4-0.3-0.8-0.4
							c-0.2,0-0.5,0.1-0.7,0.1c-0.7,0.1-1.9,0.1-2.5,0c-0.6-0.1-1-0.3-1.7-0.6c-0.5-0.2-1.5-0.5-1.4-0.9c0-0.2,0.9-0.5,1.2-0.6
							c0.6-0.2,0.9-0.4,1.3-0.5c0.2,0,0.4,0.1,0.6,0.1c0.2,0,0.5-0.2,0.8-0.3c0.6-0.1,1.5,0,1.4-0.6c-0.5-0.4-2.3,0.3-2.4-0.5
							c0-0.5,0.7-0.6,1.3-0.7c0.5-0.1,1.2-0.3,1.7-0.3c0.5,0,1.1,0.6,1.4,0c0.1-0.4-0.2-0.8-0.3-1.2c0.4-0.5,1-0.4,1.6-0.5
							c0.6-0.1,1.1-0.2,1.6-0.4c0.5-0.2,1-0.4,1.6-0.4c0.6-0.1,1.2-0.3,1.7-0.3c0.4,0,0.8,0,1.2-0.1c0.4-0.1,0.8-0.3,1.2-0.3
							c0.3,0,0.5,0.2,0.8,0.3c0.3,0,0.5,0,0.8,0c0.2,0,0.4,0.2,0.6,0.2c0.3,0,0.7,0,1,0c0.3,0,0.5,0.2,0.8,0.3
							c0.7,0.1,1.4,0,2.1,0.1c0.2,0,0.5,0.2,0.7,0.2c0.3,0,0.5,0,0.8,0c0.3,0.1,0.6,0.4,1,0.4c0.7,0.1,1.4-0.3,2.1-0.3
							c0.5,0,1,0,1.6-0.1c0.5-0.1,0.9-0.3,1.4-0.3c0.2,0,0.4,0.1,0.6,0c0.2,0,0.5-0.3,0.7-0.3c0.3,0.1,0.3,0.5,0.6,0.6
							c0.4-0.2,0.7,0,1.2,0c0.4,0,0.8-0.2,1.2-0.1c0.8,0.1,1.9,0.9,2.5,0.5c0.2-0.1,0.1-0.3,0.3-0.6c0.2-0.4,0.6-0.8,0.5-1.3
							c-0.9,0-1.7,0.4-2.7,0.5c-1-0.6,0.3-1,1-1.3c0.6-0.2,1.1-0.8,1.8-0.9c0.6-0.1,1.3,0.1,2,0.2c0.4,0,0.8,0,1.1,0
							c0.4,0.1,0.6,0.5,1,0.6c0.2,0,0.4,0,0.6,0.1c0.4,0.1,0.7,0.3,1.1,0c0.3,0.1,0.3,0.4,0.6,0.4c0.3-0.2,0.5-0.5,0.9-0.6
							c0.2,0,0.4,0,0.6,0c0.4-0.1,0.8-0.5,1-0.1c-0.1,0.3-0.6,0.4-0.8,0.6c-0.2,0.2-0.6,0.7-0.6,0.9c0.1,0.4,0.7,0.3,0.7,0.8
							c-0.1,0.3-0.4,0.2-0.7,0.3c-0.3,0.1-0.4,0.4-0.6,0.4c-0.8,0.1-1.4-0.2-2.1-0.2c0,0.3,0.3,0.5,0.5,0.6c0.6,0.3,1.1,0.3,2,0.3
							c0.4,0,1,0.1,1.3-0.1c0.2-0.2,0.2-0.5,0.4-0.7c0.2-0.2,0.8-0.5,1.2-0.4c0.2,0,0.5,0.3,0.5,0.4c0,0.4-0.6,0.3-0.6,0.7
							c0.4,0.2,1.3-0.2,1.4-0.6c0-0.3-0.3-0.4-0.3-0.7c0-0.5,0.6-0.4,0.6-0.9c-0.3-0.2-0.6,0-0.9,0c-0.4-0.1-0.8-0.6-1-0.9
							c0.2-0.2,0.6-0.1,0.9,0c0.3-0.4,0.9-0.6,1.7-0.7c0.3,0,0.7-0.1,0.8,0.1c0.1,0.4-0.6,0.7-0.5,1.1c0.6,0.1,0.8-0.6,1.2-0.9
							c0.2-0.1,0.5-0.2,0.8-0.3c0.3-0.1,0.6-0.4,0.8-0.3c0.2,0,0.3,0.2,0.5,0.3c0.2,0.1,0.5-0.1,0.6,0.2c-0.5,0.9-2.4,0.4-2.8,1.2
							c0.1,0.6-0.3,1.2,0,1.6c0.2,0.3,0.8,0.1,0.9,0.4c0.2,0.4-0.5,0.4-0.3,0.9c0.5,0.3,1-0.3,1.4-0.5c0.5-0.2,1-0.5,1.1-1
							c-0.2-0.4-1.1-0.1-1.2-0.6c-0.1-0.3,0.3-0.8,0.3-0.9c0.4-0.5,2-1.2,3.1-1.1c0.2,0,0.4,0.2,0.6,0.2c0.7,0.1,1.6-0.3,2.2,0
							c0.5-0.3,1,0,1.7,0c0.5,0.3,0.4,0.9,1.1,1.2c0.2,0.1,0.5,0,0.7,0.1c0.2,0,0.4,0.3,0.6,0.4c0.3,0.1,0.6,0.1,0.6,0.3
							c0.1,0.2-0.2,0.4-0.2,0.6c0.2,0.2,0,0.4,0.1,0.6c0.2,0.4,0.7,0.4,1.1,0.6c0.3,0.1,1,0.5,1,0.9c0,0.2-0.7,0.6-0.9,0.7
							c-0.1,0.1-0.9,0.4-1.1,0.4c-0.4-0.1-0.6-0.9-1.1-0.9c-0.2,0-0.5,0.2-0.5,0.5c0,0.6,0.6,0.6,0.6,1.1c0,0.6-0.3,0.6-0.8,1
							c-0.4-0.1-0.7-0.3-1.1-0.4c-0.3,0.3,0.5,0.4,0.2,0.9c-0.7,0.1-1.2-0.2-1.9-0.4c-0.2-0.1-0.5,0-0.6-0.1
							c-0.2-0.1-0.3-0.6-0.5-0.8c-0.2-0.3-0.7-0.6-1.1-0.6c-0.5,0-1.3,0.7-1.7,0c0.3-1,1.7-0.3,2.6-0.6c0.3-0.1,0.5-0.5,0.7-0.6
							c0.6-0.3,1.5-0.4,1.4-1c0-0.3-0.5-0.3-0.7-0.5c-0.3-0.2-0.6-1-1.1-1c-0.2,0-0.4,0.2-0.7,0.2c-0.6,0.1-1.2-0.2-1.7,0
							c-0.2,0.1-0.1,0.3-0.3,0.6c-0.2,0.2-0.5,0.3-0.6,0.5c-0.2,0.2-0.1,0.5-0.3,0.7c-0.4,0.3-1.1,0.4-1.6,0.5
							c-0.2,0.1-0.5,0.3-0.6,0.3c-0.4,0-0.5-0.5-0.9-0.3c0,0.5,0.5,0.6,0.8,0.9c0.4,0.2,0.7,0.5,0.9,0.9c-0.4,0.7-0.9,0-1.5,0
							c-0.6,0-1.5,1.2-2,0.2c0.1-0.5,0.7-0.6,0.8-1.1c-0.6,0.1-1.1,0.6-1.9,0.8c-0.3,0.1-0.6,0.1-0.9,0.1c-0.5,0.2-0.9,0.5-1.4,0.7
							c-0.2,0.1-0.5,0.1-0.7,0.1c-0.5,0.2-1.1,0.5-1.7,0.8c-0.5,0.3-1.2,0.6-1.5,0.9c-0.2,0.2-0.7,0.7-0.6,0.9
							c0,0.3,0.5,0.3,0.5,0.6c0,0.2-0.3,0.5-0.1,0.7c0.2,0.2,0.5,0,0.9,0.1c0.7,0.1,1.1,0.6,1.6,0.9c0.4,0.2,0.9,0.5,1.4,0.5
							c0.6,0.1,1.3-0.2,1.3,0.3c0.1,0.5-0.6,0.6-0.6,0.9c0.3,0.4-0.2,0.6-0.2,1c0,0.3,0.4,0.7,0.7,0.8c0.4,0,1.1-0.4,1.2-0.9
							c0.2-0.5,0.1-1.2,0.5-1.6c2,0.1,3.7-0.9,3.6-3c0-0.2-0.1-0.5-0.1-0.7c0.1-0.3,0.6-0.6,0.6-1c0.6-0.2,0.5-1.1,1.1-1.2
							c0.5-0.1,1,0.3,1.7,0.3c0.2,0,0.5-0.2,0.7-0.2c0.4,0.1,0.7,0.6,1,0.8c0.3,0.2,0.6,0.1,0.6,0.4c-0.1,0.5-0.4,0.5-0.4,0.9
							c0,0.4,0.4,0.7,0.6,0.7c0.3,0.1,0.8-0.1,1.1-0.3c0.6-0.3,1.1-1.1,1.6-1c0.4,0.1,0.7,1.3,0.7,1.7c0.1,0.5-0.1,0.8,0,1.2
							c0.1,0.7,1,0.7,1.4,1c0.1,0.1,0.2,0.4,0.3,0.6c0.2,0.3,0.5,0.3,0.5,0.6c0.1,0.7-0.7,0.8-0.6,1.6c-0.2,0.3-0.5,0.3-0.5,0.7
							c0.1,0.7,1,0.2,1.3,0.7c0.1,0.3,0,0.5-0.1,0.9c0.3,0.4,0.3,1-0.3,1C236.7,274.1,236.6,273.8,236.2,273.7z M189.7,272.5
							c0.2-0.2-0.1-0.7-0.4-0.5C189.2,272.2,189.3,272.6,189.7,272.5z M219.7,276.5c-0.2-0.2-0.8-0.1-1.2-0.1
							c-0.3,0-0.6,0.1-0.6,0.3C218.4,276.9,219.6,277,219.7,276.5z M217.5,275.7c0.3-0.3,0.2-0.8-0.2-0.9c-0.1,0-0.3,0.1-0.6,0.1
							c-0.2,0-0.5-0.2-0.7-0.3c-0.3,0-0.7,0.1-0.8,0.3c0,0.3,0.2,0.3,0.2,0.6c-0.4,0.3-0.2,1.3,0.2,1.3c0.4,0,0.7-1.1,1.2-1.2
							C217.1,275.6,217.2,275.8,217.5,275.7z M216.9,277.5c-0.6-0.2-1.2,0.1-1.7,0.2c-0.3,0-0.8-0.1-0.8,0.4
							c0.1,0.4,0.6,0.2,0.9,0.1C216,278,216.5,277.8,216.9,277.5z M215,274.2c0.9-0.4-0.2-1.5-0.6-1.6c-0.7-0.2-1.7,0.5-2.5,0.7
							c-0.5,0.1-0.9,0.1-1,0.5c0.4,0.7,1.2-0.1,1.8,0c0.3,0.1,0.5,0.5,0.8,0.5C213.7,274.3,214.9,274.2,215,274.2z M214.4,274.9
							c-0.2-0.2-1.1,0-1.4,0.2c-0.2,0.1-0.3,0.5-0.5,0.7c-0.2,0.2-0.4,0.4-0.6,0.6c-0.2,0.2-1,1.5-0.3,1.6c0.3,0.1,0.9-0.5,0.9-0.8
							c0.2-0.8,0.6-1.4,1.2-1.7C214,275.3,214.3,275.3,214.4,274.9z M209,270c0.5,0,0.8-1.4,0-1.2C208.5,268.9,208.3,270.1,209,270z
							 M206.7,302.4c0-0.1,0.1-0.1,0.1-0.2C206.6,301.8,206.2,302.3,206.7,302.4z M188.4,266.3c0-0.1,0-0.1,0-0.2
							c-0.1,0-0.3,0-0.3,0.1C188.2,266.4,188.4,266.4,188.4,266.3z M233.7,259.5c0.2,0,0.3,0,0.3-0.3
							C233.8,259.1,233.6,259.3,233.7,259.5z M228.8,255.3c-0.1-0.1-0.2-0.1-0.3,0c0,0.1,0,0.1,0,0.2
							C228.7,255.5,228.7,255.4,228.8,255.3z M212.4,258.6c0.1-0.1,0.4-0.2,0.3-0.4c-0.5-0.2-1.3-0.1-2-0.1
							c-0.4-0.6-1.1-0.6-1.1,0.3C210.4,259,211.6,258,212.4,258.6z M204.7,263.1c0.2-0.1,0.6,0,0.6-0.3c-0.2-0.2-0.4-0.4-0.6-0.4
							c-0.3,0-0.5,0.3-0.8,0.4c-0.4,0.2-0.9,0.2-0.9,0.6C203.7,263.5,204.3,263.2,204.7,263.1z M204.5,260c0.3,0,0.6,0.1,0.7-0.2
							c-0.2-0.9-1.5-0.4-2.3-0.3c-0.2,0.3-0.4,0.5-0.4,0.9C203.1,260.5,203.8,260.1,204.5,260z M217.4,304c0.3-0.1,0.2-0.8-0.2-0.6
							C216.9,303.5,217.1,304,217.4,304z"/>
						<path class="st27" d="M188.4,266.1c0,0.1,0.1,0.1,0,0.2c-0.1,0.1-0.2,0.1-0.3,0C188.1,266.1,188.3,266.1,188.4,266.1z"/>
						<path class="st27" d="M187.1,268.7c-0.1,0.3-0.3,0.4-0.6,0.5c-0.1-0.1-0.2-0.1-0.2-0.2C186.3,268.6,186.9,268.3,187.1,268.7z"
							/>
					</g>
				</g>
				<path class="st18" d="M332.6,279.9c0,1.5-2.8,4.2-2.8,4.2s-2.8-2.6-2.8-4.2s1.2-2.8,2.8-2.8
					C331.4,277.1,332.6,278.4,332.6,279.9z"/>
				<path class="st18" d="M375.1,332.7c0,1.5-2.8,4.2-2.8,4.2s-2.8-2.6-2.8-4.2c0-1.5,1.2-2.8,2.8-2.8S375.1,331.1,375.1,332.7z"/>
				<path class="st18" d="M236.3,323.9c0,1.5-2.8,4.2-2.8,4.2s-2.8-2.6-2.8-4.2c0-1.5,1.2-2.8,2.8-2.8
					C235,321.2,236.3,322.4,236.3,323.9z"/>
				<path class="st2" d="M205.4,295.7c0,1.5-2.8,4.2-2.8,4.2s-2.8-2.6-2.8-4.2s1.2-2.8,2.8-2.8S205.4,294.2,205.4,295.7z"/>
				<path class="st2" d="M211.3,265c0,1.5-2.8,4.2-2.8,4.2s-2.8-2.6-2.8-4.2s1.2-2.8,2.8-2.8S211.3,263.5,211.3,265z"/>
				<path class="st18" d="M189.8,259.8c0,1.5-2.8,4.2-2.8,4.2s-2.8-2.6-2.8-4.2s1.2-2.8,2.8-2.8S189.8,258.2,189.8,259.8z"/>
				<path class="st2" d="M329,257.6c0,1.5-2.8,4.2-2.8,4.2s-2.8-2.6-2.8-4.2s1.2-2.8,2.8-2.8C327.8,254.8,329,256,329,257.6z"/>
				<path class="st2" d="M370.1,281.3c0,1.5-2.8,4.2-2.8,4.2s-2.8-2.6-2.8-4.2s1.2-2.8,2.8-2.8S370.1,279.7,370.1,281.3z"/>
				<path class="st18" d="M283.1,265.4c0,1.5-2.8,4.2-2.8,4.2s-2.8-2.6-2.8-4.2s1.2-2.8,2.8-2.8S283.1,263.9,283.1,265.4z"/>
				<path class="st2" d="M286.3,303.2c0,1.5-2.8,4.2-2.8,4.2s-2.8-2.6-2.8-4.2s1.2-2.8,2.8-2.8S286.3,301.7,286.3,303.2z"/>
			</g>
			<g>
				<path class="st2" d="M292,364.1c0,1.5-2.8,4.2-2.8,4.2s-2.8-2.6-2.8-4.2s1.2-2.8,2.8-2.8C290.8,361.4,292,362.6,292,364.1z"/>
				<g>
					<text transform="matrix(1 0 0 1 297.0768 366.5362)" class="st11 st14 st28">Your Text 01</text>
				</g>
			</g>
			<g>
				<path class="st18" d="M350.1,364.1c0,1.5-2.8,4.2-2.8,4.2s-2.8-2.6-2.8-4.2s1.2-2.8,2.8-2.8
					C348.8,361.4,350.1,362.6,350.1,364.1z"/>
				<g>
					<text transform="matrix(1 0 0 1 355.1232 366.5362)" class="st11 st14 st28">Your Text 02</text>
				</g>
			</g>
			<g>
				<text transform="matrix(1 0 0 1 166.6372 243.7041)" class="st20 st14 st23">Maps</text>
			</g>
		</g>
		<g>
			<path class="st3" d="M540.4,328.2H427c-4.2,0-7.5-3.4-7.5-7.5V190c0-4.2,3.4-7.5,7.5-7.5h113.4c4.2,0,7.5,3.4,7.5,7.5v130.7
				C547.9,324.9,544.5,328.2,540.4,328.2z"/>
			<g>
				<g>
					<text transform="matrix(1 0 0 1 429.7678 199.419)" class="st11 st14 st29">Analitycal</text>
				</g>
				<g>
					<text transform="matrix(1 0 0 1 429.7678 215.3497)" class="st11 st14 st30">Lorem ipsum</text>
				</g>
				<g>
					<text transform="matrix(1 0 0 1 527.6975 215.3497)" class="st11 st14 st30">98%</text>
				</g>
				<g>
					<text transform="matrix(1 0 0 1 429.7678 227.1886)" class="st11 st14 st30">Dolor sit</text>
				</g>
				<g>
					<text transform="matrix(1 0 0 1 527.6975 227.1886)" class="st11 st14 st30">50%</text>
				</g>
				<rect x="466.8" y="225.6" class="st18" width="28.1" height="3"/>
				<g>
					<text transform="matrix(1 0 0 1 429.7678 239.0274)" class="st11 st14 st30">Consectetuer</text>
				</g>
				<g>
					<text transform="matrix(1 0 0 1 527.6975 239.0274)" class="st11 st14 st30">20%</text>
				</g>
				<rect x="466.8" y="237.5" class="st2" width="6.8" height="3"/>
				<rect x="466.8" y="213.8" class="st2" width="55.1" height="3"/>
				<g>
					<text transform="matrix(1 0 0 1 429.7678 250.8673)" class="st11 st14 st30">Adipiscing</text>
				</g>
				<g>
					<text transform="matrix(1 0 0 1 527.6975 250.8673)" class="st11 st14 st30">45%</text>
				</g>
				<rect x="466.8" y="249.3" class="st18" width="25.7" height="3"/>
				<g>
					<text transform="matrix(1 0 0 1 429.7678 262.7061)" class="st11 st14 st30">Sed Diam</text>
				</g>
				<g>
					<text transform="matrix(1 0 0 1 527.6975 262.7061)" class="st11 st14 st30">30%</text>
				</g>
				<rect x="466.8" y="261.2" class="st2" width="13" height="3"/>
				<g>
					<text transform="matrix(1 0 0 1 429.7678 274.546)" class="st11 st14 st30">Nonummy</text>
				</g>
				<g>
					<text transform="matrix(1 0 0 1 527.6975 274.546)" class="st11 st14 st30">80%</text>
				</g>
				<rect x="466.8" y="273" class="st18" width="43.7" height="3"/>
				<g>
					<text transform="matrix(1 0 0 1 429.7678 286.3849)" class="st11 st14 st30">Nibh Euismod</text>
				</g>
				<g>
					<text transform="matrix(1 0 0 1 527.6975 286.3849)" class="st11 st14 st30">39%</text>
				</g>
				<rect x="466.8" y="284.8" class="st2" width="23.2" height="3"/>
				<g>
					<text transform="matrix(1 0 0 1 429.7678 298.2247)" class="st11 st14 st30">Ullamcorper</text>
				</g>
				<g>
					<text transform="matrix(1 0 0 1 527.6975 298.2247)" class="st11 st14 st30">65%</text>
				</g>
				<rect x="466.8" y="296.7" class="st18" width="36.5" height="3"/>
			</g>
		</g>
		<g>
			<path class="st3" d="M611.1,328.2h-50.3c-4.2,0-7.5-3.4-7.5-7.5V190c0-4.2,3.4-7.5,7.5-7.5h50.3c4.2,0,7.5,3.4,7.5,7.5v130.7
				C618.6,324.9,615.2,328.2,611.1,328.2z"/>
			<g>
				<g>
					<path class="st2" d="M585.9,223.3c-9,0-16.3-7.3-16.3-16.3c0-9,7.3-16.3,16.3-16.3c9,0,16.3,7.3,16.3,16.3
						C602.3,216,594.9,223.3,585.9,223.3z M585.9,193.2c-7.6,0-13.8,6.2-13.8,13.8s6.2,13.8,13.8,13.8c7.6,0,13.8-6.2,13.8-13.8
						S593.5,193.2,585.9,193.2z"/>
					<circle class="st2" cx="585.9" cy="207" r="10.8"/>
					<g>
						<text transform="matrix(1 0 0 1 579.9055 207.9084)" class="st31 st32">75%</text>
						<g>
							<text transform="matrix(1 0 0 1 579.9055 207.9084)" class="st0 st31 st32">75%</text>
						</g>
					</g>
					<text transform="matrix(1 0 0 1 580.8518 210.8088)" class="st33 st14 st34">Your Text Here</text>
				</g>
				<g>
					<g>
						<text transform="matrix(1 0 0 1 576.425 230.3225)" class="st20 st14 st35">Chart 01</text>
					</g>
				</g>
				<g>
					<path class="st18" d="M585.9,267.1c-9,0-16.3-7.3-16.3-16.3c0-9,7.3-16.3,16.3-16.3c9,0,16.3,7.3,16.3,16.3
						C602.3,259.8,594.9,267.1,585.9,267.1z M585.9,237c-7.6,0-13.8,6.2-13.8,13.8s6.2,13.8,13.8,13.8c7.6,0,13.8-6.2,13.8-13.8
						S593.5,237,585.9,237z"/>
					<circle class="st2" cx="585.9" cy="250.8" r="10.8"/>
					<g>
						<text transform="matrix(1 0 0 1 579.9055 251.73)" class="st31 st32">50%</text>
						<g>
							<text transform="matrix(1 0 0 1 579.9055 251.73)" class="st0 st31 st32">50%</text>
						</g>
					</g>
					<text transform="matrix(1 0 0 1 580.8518 254.6304)" class="st33 st14 st34">Your Text Here</text>
					<path class="st2" d="M602.3,250.8c0-9-7.3-16.3-16.3-16.3v2.6c7.6,0,13.7,6.2,13.7,13.8c0,7.6-6.2,13.7-13.7,13.8v2.6
						C594.9,267.1,602.3,259.8,602.3,250.8z"/>
				</g>
				<g>
					<g>
						<text transform="matrix(1 0 0 1 576.425 274.1441)" class="st20 st14 st35">Chart 02</text>
					</g>
				</g>
				<g>
					<path class="st2" d="M585.9,310.9c-9,0-16.3-7.3-16.3-16.3c0-9,7.3-16.3,16.3-16.3c9,0,16.3,7.3,16.3,16.3
						C602.3,303.6,594.9,310.9,585.9,310.9z M585.9,280.8c-7.6,0-13.8,6.2-13.8,13.8c0,7.6,6.2,13.8,13.8,13.8
						c7.6,0,13.8-6.2,13.8-13.8C599.7,287,593.5,280.8,585.9,280.8z"/>
					<circle class="st2" cx="585.9" cy="294.6" r="10.8"/>
					<g>
						<text transform="matrix(1 0 0 1 579.9055 295.5516)" class="st31 st32">96%</text>
						<g>
							<text transform="matrix(1 0 0 1 579.9055 295.5516)" class="st0 st31 st32">96%</text>
						</g>
					</g>
					<text transform="matrix(1 0 0 1 580.8518 298.452)" class="st33 st14 st34">Your Text Here</text>
					<path class="st18" d="M585.2,280.9v-2.6c-0.4,0-0.9,0-1.3,0.1l0.3,2.6C584.6,280.9,584.9,280.9,585.2,280.9z"/>
				</g>
				<g>
					<g>
						<text transform="matrix(1 0 0 1 576.425 317.9657)" class="st20 st14 st35">Chart 03</text>
					</g>
				</g>
				<path class="st18" d="M585.9,193.2c0.1,0,0.2,0,0.3,0v-2.6c-0.1,0-0.2,0-0.3,0c-9,0-16.3,7.3-16.3,16.2h2.6
					C572.2,199.3,578.4,193.2,585.9,193.2z"/>
			</g>
		</g>
		<g>
			<path class="st3" d="M611.1,379.7H427c-4.2,0-7.5-3.4-7.5-7.5v-31c0-4.2,3.4-7.5,7.5-7.5h184.1c4.2,0,7.5,3.4,7.5,7.5v31
				C618.6,376.3,615.2,379.7,611.1,379.7z"/>
			<g>
				<g>
					
						<rect x="477.6" y="351.6" transform="matrix(1 -4.266460e-03 4.266460e-03 1 -1.5362 2.311)" class="st36" width="126.5" height="19.3"/>
					<text transform="matrix(1 -4.270000e-03 4.270000e-03 1 477.6029 354.6096)"><tspan x="0" y="0" class="st37 st38 st39">Lorem ipsum dolor sit amet, consectetuer adipiscing elit, sed diam nonummy </tspan><tspan x="0" y="4.7" class="st37 st38 st39">nibh euismod tincidunt ut laoreet dolore magna aliquam erat volutpat. Ut </tspan><tspan x="0" y="9.4" class="st37 st38 st39">wisi enim ad minim veniam, quis nostrud exerci tation ullamcorper suscipit </tspan><tspan x="0" y="14.1" class="st37 st38 st39">lobortis.</tspan></text>
				</g>
				<g>
					<text transform="matrix(1 0 0 1 477.5912 346.55)" class="st11 st14 st40">Recent Update</text>
				</g>
				<text transform="matrix(1 0 0 1 433.859 355.1436)" class="st2 st31 st30">01/12/2020</text>
			</g>
		</g>
	</g>
</g>
</svg>
